<?xml version="1.0" encoding="utf-8"?>
<!-- Generator: Adobe Illustrator 24.3.0, SVG Export Plug-In . SVG Version: 6.00 Build 0)  -->
<svg version="1.1" xmlns="http://www.w3.org/2000/svg" xmlns:xlink="http://www.w3.org/1999/xlink" x="0px" y="0px"
	 viewBox="0 0 800 712.8" style="enable-background:new 0 0 800 712.8;" xml:space="preserve">
<style type="text/css">
	.st0{fill:#0071BC;}
	.st1{fill:#F5BCD7;}
	.st2{fill:#FAE6F1;}
	.st3{fill:#F1A1C6;}
</style>
<g id="background_1_">
</g>
<g id="object">
	<g>
		<g>
			<g>
				<g id="XMLID_2_">
					<g>
						<path class="st0" d="M166.6,701.8c4.1,2.2,9.1,3.6,14.4,3.6h125.2h135h135.1h144.4c5.7,0,10.9-1.5,15.3-4.1
							c-1.9,0.7-4,1.1-6.1,1.1c-10.5,0-19.1-8.6-19.1-19.1c0-10.5,8.6-19.1,19.1-19.1c2,0,3.9,0.4,5.8,1c-4.2-2.4-9.4-3.8-14.9-3.8
							H576.3H441.2h-135H181c-5,0-9.6,1.2-13.6,3.2c1.2-0.2,2.5-0.4,3.7-0.4c10.5,0,19.1,8.6,19.1,19.1c0,10.5-8.6,19.1-19.1,19.1
							C169.5,702.4,168,702.1,166.6,701.8z M748.9,683.3C748.9,683.3,748.9,683.3,748.9,683.3C748.9,683.3,748.9,683.3,748.9,683.3
							c0,0.2,0,0.3,0,0.4c0,1.3-0.2,2.6-0.5,3.8c-0.2,0.9-0.5,1.8-0.8,2.7c-0.1,0.2-0.2,0.5-0.2,0.7c-3.8,9.4-14.2,16.2-26.6,16.2
							H181c-9.3,0-17.5-3.9-22.7-9.7c-3.8-3.5-6.3-8.5-6.3-14c0-5.9,2.8-11.1,7-14.6c5.2-5.5,13-9,22-9h539.7
							c12.2,0,22.6,6.6,26.5,15.8c0.3,0.6,0.5,1.2,0.7,1.8c0.2,0.6,0.4,1.2,0.6,1.8C748.7,680.4,748.9,681.8,748.9,683.3z
							 M747.2,683.7c0-0.1,0-0.2,0-0.4c0-1.3-0.2-2.7-0.5-4c-0.1-0.6-0.3-1.2-0.5-1.7c-0.2-0.5-0.4-1-0.6-1.5
							c-2.7-6-8.8-10.2-15.8-10.2c-9.6,0-17.4,7.8-17.4,17.4c0,9.6,7.8,17.4,17.4,17.4c7.1,0,13.3-4.3,15.9-10.5
							c0.1-0.1,0.1-0.3,0.2-0.4c0.3-0.8,0.6-1.7,0.8-2.6C747,686,747.1,684.8,747.2,683.7z M188.5,683.3c0-9.6-7.8-17.4-17.4-17.4
							c-4.2,0-8,1.6-11,4.1c-3.5,3.7-5.6,8.3-5.6,13.4c0,4.7,1.8,9,4.9,12.6c3.1,2.9,7.2,4.7,11.8,4.7
							C180.7,700.6,188.5,692.8,188.5,683.3z"/>
						<path class="st0" d="M726.8,655.1c15.9,0,28.8,12.9,28.8,28.8c0,15.9-12.9,28.8-28.8,28.8h-552c-15.9,0-28.9-12.9-28.9-28.8
							c0-15.9,12.9-28.8,28.9-28.8h48.6c-2.4-1.2-4.1-3.7-4.1-6.5v-43c0-3.9,3.1-7.1,6.9-7.3V592c0-0.6,0.1-1.1,0.2-1.7
							c-0.9-0.7-1.4-1.7-1.4-2.8c0-2,1.6-3.6,3.6-3.6h9.6c2,0,3.6,1.6,3.6,3.6c0,1.2-0.6,2.3-1.6,3c0.1,0.5,0.2,1,0.2,1.5v6.2h0.7
							c4,0,7.3,3.3,7.3,7.3v3.1v36.5v3.3c0,2.9-1.7,5.3-4.1,6.5h17.3c-2.4-1.2-4.1-3.7-4.1-6.5v-43c0-3.9,3.1-7.1,6.9-7.3V592
							c0-0.6,0.1-1.1,0.2-1.7c-0.9-0.7-1.4-1.7-1.4-2.8c0-2,1.6-3.6,3.6-3.6h9.6c2,0,3.6,1.6,3.6,3.6c0,1.2-0.6,2.3-1.6,3
							c0.1,0.5,0.2,1,0.2,1.5v6.2h0.7c4,0,7.3,3.3,7.3,7.3v3.1v36.5v3.3c0,2.9-1.7,5.3-4.1,6.5h17.5c-2.4-1.2-4.1-3.7-4.1-6.5v-43
							c0-3.9,3.1-7.1,6.9-7.3V592c0-0.6,0.1-1.1,0.2-1.7c-0.9-0.7-1.4-1.7-1.4-2.8c0-2,1.6-3.6,3.6-3.6h9.5c2,0,3.6,1.6,3.6,3.6
							c0,1.2-0.6,2.3-1.6,3c0.1,0.5,0.2,1,0.2,1.5v6.2h0.7c4,0,7.3,3.3,7.3,7.3v3.1v36.5v3.3c0,2.9-1.7,5.3-4.1,6.5h24v-11.6h12.1
							l16.6-2.5l-16.9-2.4c-0.1,0-0.1,0-0.2,0c-2-0.5-3.3-2.4-3-4.4c0.3-1.9,1.9-3.4,3.8-3.4l16.3-2.4l-16.5-2.4
							c-0.1,0-0.2,0-0.3-0.1c-1.7-0.3-3-1.6-3.3-3.3c-0.2-1,0.1-2.1,0.7-3c0.6-0.8,1.6-1.4,2.6-1.6l16.7-2.5l-15.1-2.2l-0.4,0.1
							c-0.2,0-0.4,0-0.6,0c-2,0-3.6-1.5-3.9-3.4c-0.1-1,0.1-2,0.7-2.9c0.8-1.3,2.4-2.1,4-1.9l0.2,0l15.2-2.3l-16.5-2.4
							c-0.1,0-0.2,0-0.3-0.1c-1.7-0.3-3-1.6-3.2-3.3c-0.2-1,0.1-2.1,0.7-3c0.6-0.8,1.6-1.4,2.6-1.6l16.9-2.5l-17-2.4
							c-0.4,0-0.8-0.2-1.2-0.4c-0.1,0-0.1,0-0.1-0.1c-0.1-0.1-0.2-0.1-0.4-0.2c-1-0.6-1.6-1.6-1.8-2.7c-0.2-1,0.1-2.1,0.7-3
							c0.6-0.9,1.6-1.4,2.6-1.6l16.7-2.5l-11.6-1.7c-3.1,3.4-8.9,5.3-16.3,5.3h-1.3c-10.3,0-18.7-8.4-18.7-18.7v-1
							c-0.2-0.1-0.4-0.2-0.5-0.3c0,0,0,0-0.1-0.1c-0.1-0.1-0.3-0.2-0.4-0.3c0,0,0,0-0.1,0c-0.1-0.1-0.3-0.3-0.4-0.4c0,0,0,0,0,0
							c-0.1-0.1-0.2-0.3-0.3-0.5c0,0,0,0,0-0.1c-0.2-0.3-0.4-0.7-0.5-1.1c0,0,0-0.1,0-0.1c0-0.1-0.1-0.2-0.1-0.3c0-0.1,0-0.1,0-0.2
							c0,0,0-0.1,0-0.1c0-0.2,0-0.4,0-0.6v-6.8l-0.5,1.3l-9.9-4l1.7-4.4c-0.5-0.3-1-0.7-1.5-1.1c0,0,0,0,0,0
							c-0.5-0.4-0.9-0.8-1.4-1.2v21.3c0,10.3-8.4,18.7-18.7,18.7h-3.2c-10.3,0-18.7-8.4-18.7-18.7v-73c0-2.8-2.1-5-4.7-5
							c-2.6,0-4.7,2.2-4.7,5v70.5c0,10.3-8.4,18.7-18.7,18.7h-2.2c-10.3,0-18.7-8.4-18.7-18.7v-74.6c0-2.8-2.2-5-5-5h-1.3
							c-2.7,0-5,2.2-5,5v82.2c0,10.3-8.3,18.7-18.4,18.7c-10.1,0-18.4-8.4-18.4-18.7V527h-11.3v90.5h5.6l9.2,13l-45-0.5l8.9-12.5
							h7.6V527h-13.2v16.6c0,2.6-2.1,4.7-4.7,4.7h-6.8v41c0,2.6-2.1,4.7-4.7,4.7h-9.7v92.6h6.9v12h7.5v13.9H54.2v-13.9h5.7v-12h5.3
							V594h-9.4c-2.6,0-4.7-2.1-4.7-4.7v-41h-8.2c-2.6,0-4.7-2.1-4.7-4.7v-42.2c0-2.6,2.1-4.7,4.7-4.7h8.2v-9.2
							c0-2.6,2.1-4.7,4.7-4.7h15.8v-16.1c0-2.6,2.1-4.6,4.6-4.6h3.6v-33.7h-3.4c-2.8,0-5.2-2.3-5.2-5.2c0-0.9,0.2-1.7,0.6-2.4
							c-5.5-2.4-10.2-6.1-13.7-10.6c-3.6-4.5-6.1-9.8-7.3-15.5c-0.2-1.2-0.4-2.4-0.5-3.6c0-0.1,0-0.2,0-0.3c0-0.5-0.1-0.9-0.1-1.4
							c0-0.1,0-0.3,0-0.5c0-0.6,0-1.1,0-1.7c0-0.6,0-1.1,0-1.7c0-0.1,0-0.2,0-0.3c0.6-11.9,6.9-22.6,17.1-29v-6.1
							c0-4.8,3.8-8.7,8.5-8.9c-0.6-0.8-1-1.7-1-2.8c0-2.6,2.1-4.6,4.6-4.6h0.4v-33.7H77c-1.3,0-2.3-1-2.3-2.3v-31.5
							c0-0.1,0-0.3,0.1-0.4h-5.3c-1.3,0-2.3-1-2.3-2.3v-7.4c0-1.2,1-2.3,2.3-2.3h5.2v-34h-4.5l-4.3-32.4h41.6l-4.3,32.4h-4.6v34h5.3
							c1.2,0,2.3,1,2.3,2.3v7.4c0,1.2-1,2.3-2.3,2.3h-5.3c0,0.1,0,0.3,0,0.4v31.5c0,1.2-1,2.3-2.3,2.3h-2.7v33.7H94
							c2.5,0,4.6,2.1,4.6,4.6c0,1-0.4,2-0.9,2.8c4.7,0.3,8.5,4.2,8.5,8.9v6.1c10.2,6.4,16.5,17.1,17.1,29c0,0.1,0,0.2,0,0.3
							c0,0.6,0,1.1,0,1.7c0,0.6,0,1.1,0,1.7c0,0.2,0,0.3,0,0.5c0,0.4-0.1,0.9-0.1,1.3c0,0.1,0,0.3,0,0.4c-0.1,0.5-0.1,1-0.2,1.5
							c0,0.2-0.1,0.4-0.1,0.6c-0.1,0.4-0.1,0.7-0.2,1c0,0.2-0.1,0.4-0.1,0.6c-0.1,0.5-0.2,0.9-0.3,1.4c0,0.2-0.1,0.3-0.1,0.5
							c-0.1,0.4-0.2,0.7-0.3,1.1c-0.1,0.2-0.1,0.4-0.2,0.6c-0.1,0.4-0.2,0.8-0.4,1.1c0,0.1-0.1,0.2-0.1,0.3c-0.2,0.5-0.4,1-0.6,1.5
							c0,0.1-0.1,0.2-0.1,0.3c-0.2,0.5-0.4,0.9-0.6,1.3c0,0,0,0.1-0.1,0.1c-1.7,3.4-3.8,6.6-6.4,9.3c-2.6,2.8-5.7,5.1-9.1,7
							c-0.6,0.3-1.1,0.6-1.7,0.9c0.6,0.8,0.9,1.8,0.9,2.8c0,2.9-2.3,5.2-5.2,5.2h-4.5v33.7h4.7c2.6,0,4.7,2.1,4.7,4.6v16.1h16.1
							c2.6,0,4.7,2.1,4.7,4.7v9.2h6.8c2.6,0,4.7,2.1,4.7,4.7v9.2h13.2v-25.4c0-10.3,8.4-18.7,18.7-18.7h1.3c0.7,0,1.4,0,2.1,0.1
							V357.5c0-2.5,2-4.5,4.4-4.5h25.9l-2.3-0.9l4.8-12l6.5,2.6c2-2.8,4.4-5.1,7.2-7.1l-2.9-6.7l11.9-5.1l3,6.9
							c3.3-0.6,6.6-0.6,9.8-0.1l2.8-7l12,4.8l-2.8,7c2.8,1.9,5.2,4.1,7.2,6.8l6.8-2.9l5.1,11.9l-4.4,1.9H290v-6.5
							c0-2.6,2.1-4.6,4.7-4.6h7.5c1,0,2,0.4,2.8,0.9v-20.4c0-6.7,5.2-12.2,11.7-12.2h7.9v-48c-5.1-1.4-8.8-6.1-8.8-11.6
							c0-6.7,5.4-12.1,12.1-12.1c6.5,0,11.8,5.1,12.1,11.6l7.2,4.7l9-15.8l7.5,19.2l5-6.3l8.4,3.1l8.7-18.2l6.3,25.4l6.3-10.4
							l6.7,4.3l6.6-33.5l3.9,30.4l3.5-2.8c0.2-6.4,5.5-11.6,12-11.6c6.7,0,12.1,5.4,12.1,12.1c0,5.8-4,10.6-9.5,11.8v47.9h4.5
							c6.4,0,11.7,5.5,11.7,12.2v27.8h34.9c1.4,0,2.6-1.2,2.6-2.6v-41.9H483l-0.2-0.7c-0.6-2.6-1.3-5.6-1.6-6.7h-2.8l-4.3-32.4h41.6
							l-4.3,32.4h-2.2c-0.3,1.2-1,4.1-1.6,6.7l-0.2,0.7h-2.7V346h33c2.6,0,4.6,2.1,4.6,4.7v113.8c0,2.6-2.1,4.7-4.6,4.7h-37.3
							c-2.6,0-4.7-2.1-4.7-4.7v-97.9H450v17.2h16.3c0.7,0,1.4,0.2,2,0.5l0.1,0.1c0.1,0,0.1,0.1,0.2,0.1c1.4,0.7,2.3,2.1,2.3,3.7
							v24.7c0.1,0,0.1,0,0.1,0.1c0.2,0.1,0.4,0.2,0.6,0.2c0,0,0.1,0,0.1,0.1c0.4,0.2,0.8,0.4,1.2,0.7c0,0,0.1,0.1,0.1,0.1
							c0.2,0.1,0.3,0.2,0.5,0.4c0.1,0.1,0.1,0.1,0.2,0.2c0.2,0.1,0.3,0.3,0.5,0.4c0.1,0,0.1,0.1,0.2,0.2c0.7,0.7,1.4,1.5,1.9,2.3
							c0,0,0.1,0.1,0.1,0.1c0.1,0.2,0.2,0.4,0.3,0.6c0,0.1,0.1,0.1,0.1,0.2c0.3,0.6,0.5,1.2,0.7,1.9c0,0.1,0.1,0.3,0.1,0.4
							c0,0.1,0.1,0.3,0.1,0.4c0,0.2,0.1,0.4,0.1,0.6c0,0.1,0,0.2,0,0.4c0,0.3,0,0.7,0,1c0,6-4.8,10.8-10.8,10.8
							c-6,0-10.8-4.8-10.8-10.8c0-0.3,0-0.6,0.1-1c0-0.1,0-0.2,0-0.3c0-0.3,0.1-0.5,0.1-0.8c0-0.1,0-0.1,0-0.2
							c0.1-0.3,0.1-0.6,0.2-0.9c0-0.1,0.1-0.2,0.1-0.2c0.1-0.2,0.2-0.5,0.3-0.7c0-0.1,0-0.1,0.1-0.2c0.1-0.3,0.3-0.6,0.4-0.8
							c0,0,0-0.1,0.1-0.1c0.1-0.3,0.3-0.5,0.5-0.8c0,0,0.1-0.1,0.1-0.1c0.4-0.5,0.8-1.1,1.3-1.5c0,0,0,0,0.1-0.1
							c0.2-0.2,0.5-0.4,0.7-0.6c0,0,0,0,0,0c0.3-0.2,0.5-0.4,0.8-0.6c0,0,0.1,0,0.1-0.1c0.2-0.1,0.5-0.3,0.7-0.4
							c0.1,0,0.2-0.1,0.2-0.1c0.1,0,0.1-0.1,0.2-0.1V393H450v6.4c0,6.7-5.2,12.2-11.7,12.2h-8.7v3c0,2.6-2.1,4.7-4.6,4.7h-5v2.3
							c0,2.2-1.8,4-4,4h-4v14.4c2.5,0.1,4.4,2.1,4.4,4.6v6.2h58.3c3.4,0,6.2,2.8,6.2,6.2v42.8h13.5v-0.1c0-1.8,1.5-3.3,3.3-3.3
							c1.1,0,2,0.5,2.6,1.3c0.6-0.8,1.5-1.3,2.6-1.3s2,0.5,2.6,1.3c0.6-0.8,1.6-1.3,2.6-1.3s2,0.5,2.6,1.3c0.6-0.8,1.5-1.3,2.6-1.3
							s2,0.5,2.6,1.3c0.6-0.8,1.6-1.3,2.6-1.3s2,0.5,2.6,1.3c0.6-0.8,1.5-1.3,2.6-1.3s2,0.5,2.6,1.3c0.6-0.8,1.5-1.3,2.6-1.3
							s2,0.5,2.6,1.3c0.6-0.8,1.5-1.3,2.6-1.3s2,0.5,2.6,1.3c0.6-0.8,1.5-1.3,2.6-1.3c1.1,0,2,0.5,2.6,1.3c0.6-0.8,1.6-1.3,2.6-1.3
							s2,0.5,2.6,1.3c0.6-0.8,1.5-1.3,2.6-1.3s2,0.5,2.6,1.3c0.6-0.8,1.5-1.3,2.6-1.3s2,0.5,2.6,1.3c0.6-0.8,1.6-1.3,2.6-1.3
							s2,0.5,2.6,1.3c0.6-0.8,1.5-1.3,2.6-1.3s2,0.5,2.6,1.3c0.6-0.8,1.5-1.3,2.6-1.3s2,0.5,2.6,1.3c0.6-0.8,1.5-1.3,2.6-1.3
							s2,0.5,2.6,1.3c0.6-0.8,1.5-1.3,2.6-1.3s2,0.5,2.6,1.3c0.6-0.8,1.6-1.3,2.6-1.3s2,0.5,2.6,1.3c0.6-0.8,1.5-1.3,2.6-1.3
							s2,0.5,2.6,1.3c0.6-0.8,1.5-1.3,2.6-1.3s2,0.5,2.6,1.3c0.6-0.8,1.5-1.3,2.6-1.3s2,0.5,2.6,1.3c0.6-0.8,1.5-1.3,2.6-1.3
							c1,0,2,0.5,2.6,1.3c0.4-0.5,1-0.9,1.6-1.1v-20h-27.2c-3.7,0-6.7-3-6.7-6.7v-62.6h6.5V396c-9.1-1-16.2-8.7-16.2-18.1
							c0-5.9,5.9-11.1,8.1-11.5c0.4-5.2,4.2-9.6,9.1-10.9v-38c-5.3-1.4-9.1-6.4-9.1-12c0-0.1,0-0.2,0-0.3c-1.1,0.8-2.4,1.2-3.8,1.2
							c-3.5,0-6.4-2.9-6.4-6.4v-5.8c0-1.2,0.4-2.3,1.1-3.4c0.2-0.8,0.6-1.6,1.2-2.2l14.7-15.7v-6.9h-4.5V260h20v6.2h-4.3v6.9
							l14.7,15.6c0.6,0.7,0.9,1.4,1.2,2.2c0.8,1.1,1.1,2.3,1.1,3.4v5.8c0,3.5-2.9,6.4-6.4,6.4c-1.5,0-2.9-0.5-4-1.4
							c0,0.2,0,0.3,0,0.5c0,5.6-3.8,10.5-9.2,12v38c2.5,0.7,4.6,2.1,6.2,4c1.6,1.9,2.6,4.3,2.9,6.9c2,0,8.6,5.3,8.6,11.5
							c0,9.4-7.1,17-16.3,18.1v11.1h5.8v44.7c0,2.7,2.2,5,5,5h7.8v-6.5c0-2.1,1.7-3.8,3.8-3.8h10.8v-5h-3.3V384
							c0-17.1,12.7-31.5,29.6-33.7v-3.9c0-2.1,1.3-4,3.2-4.8v-6.8c-2.4-0.8-4.1-3-4.1-5.6c0-3.3,2.7-6,6-6s6,2.7,6,6
							c0,2.7-1.8,4.8-4.1,5.6v6.7c2,0.7,3.4,2.6,3.4,4.8v4.1c16.5,2.8,28.4,16.8,28.4,33.6v57.6h-3.8v5h14.2c2.1,0,3.8,1.7,3.8,3.8
							v6.5h27.2c3.7,0,6.7,3,6.7,6.7v62.6h-6.5v11.1c9.1,1,16.3,8.7,16.3,18c0,3.6-2.1,6.6-3.4,8c-1.5,1.7-3.7,3.5-5,3.5
							c-0.7,0-1.2-0.5-1.2-1.2v-7.2c0-6.1-4.9-11-11-11c-6,0-11,4.9-11,11v7.2c0,0.7-0.5,1.2-1.2,1.2c-2,0-8.6-5.3-8.6-11.5
							c0-9.4,7.1-17,16.2-18v-11.1H718v-44.7c0-2.7-2.2-5-5-5h-7.8v52.5c0,2.1-1.7,3.8-3.8,3.8h-9.5v57.7c0.7,0.3,1.4,0.7,2.1,1.1
							c0.2,0.1,0.3,0.2,0.5,0.2c0.6,0.4,1.2,0.8,1.7,1.2c0.2,0.2,0.5,0.4,0.7,0.6c0.5,0.4,1,0.8,1.4,1.3c0.3,0.3,0.5,0.6,0.7,0.9
							c0.6,0.7,1.1,1.5,1.6,2.3c0.3,0.5,0.6,1,0.8,1.5c0.2,0.4,0.3,0.8,0.5,1.2c0.2,0.6,0.4,1.3,0.6,1.9c0.1,0.3,0.2,0.7,0.2,1
							c0.2,1,0.3,2.1,0.3,3.2c0,0.8-0.1,1.5-0.2,2.2l-0.2,1H658l-0.2-1c-0.1-0.7-0.2-1.4-0.2-2.2c0,0,0-0.1,0-0.1c0-1,0.1-2,0.3-3
							c0.1-0.4,0.2-0.8,0.3-1.2c0.2-0.6,0.3-1.2,0.5-1.7c0.2-0.5,0.3-0.9,0.5-1.4c0.2-0.4,0.4-0.8,0.7-1.3c0.6-1,1.2-2,2-2.9
							c0.1-0.2,0.3-0.3,0.4-0.5c0.5-0.5,1-1,1.5-1.4c0.2-0.2,0.4-0.3,0.6-0.5c0.6-0.5,1.2-0.9,1.8-1.2c0.1-0.1,0.3-0.1,0.4-0.2
							c0.7-0.4,1.4-0.8,2.1-1.1l0.2-57.7h-23.3v57.7c0.7,0.3,1.4,0.7,2.1,1.1c0.2,0.1,0.3,0.2,0.5,0.2c0.6,0.4,1.2,0.8,1.7,1.2
							c0.2,0.2,0.5,0.4,0.7,0.6c0.5,0.4,1,0.8,1.4,1.3c0.3,0.3,0.5,0.6,0.7,0.9c0.6,0.7,1.1,1.5,1.6,2.3c0.3,0.5,0.6,1,0.8,1.5
							c0.2,0.4,0.3,0.8,0.5,1.2c0.2,0.6,0.4,1.3,0.6,1.9c0.1,0.3,0.2,0.7,0.2,1c0.2,1,0.3,2.1,0.3,3.2c0,0.8-0.1,1.5-0.2,2.2l-0.1,1
							h-44.9h0l-0.1-1c-0.1-0.7-0.2-1.4-0.2-2.2c0,0,0-0.1,0-0.1c0-1,0.1-2,0.3-3c0.1-0.4,0.2-0.8,0.3-1.2c0.1-0.6,0.3-1.2,0.5-1.7
							c0.2-0.5,0.3-0.9,0.5-1.4c0.2-0.4,0.4-0.8,0.7-1.3c0.6-1,1.2-2,2-2.9c0.2-0.2,0.3-0.3,0.4-0.5c0.5-0.5,1-1,1.5-1.4
							c0.2-0.2,0.4-0.3,0.6-0.5c0.6-0.5,1.2-0.9,1.8-1.2c0.1-0.1,0.2-0.1,0.4-0.2c0.7-0.4,1.4-0.8,2.1-1.1l0.2-57.7h-7.6
							c-2.1,0-3.8-1.7-3.8-3.8v-5c-0.6-0.2-1.2-0.6-1.6-1.1c-0.6,0.8-1.5,1.3-2.6,1.3c-1.1,0-2-0.5-2.6-1.3
							c-0.6,0.8-1.5,1.3-2.6,1.3s-2-0.5-2.6-1.3c-0.6,0.8-1.5,1.3-2.6,1.3s-2-0.5-2.6-1.3c-0.6,0.8-1.6,1.3-2.6,1.3s-2-0.5-2.6-1.3
							c-0.6,0.8-1.5,1.3-2.6,1.3s-2-0.5-2.6-1.3c-0.6,0.8-1.5,1.3-2.6,1.3s-2-0.5-2.6-1.3c-0.6,0.8-1.5,1.3-2.6,1.3s-2-0.5-2.6-1.3
							c-0.6,0.8-1.5,1.3-2.6,1.3s-2-0.5-2.6-1.3c-0.3,0.3-0.6,0.6-0.9,0.8l0.9,2l-4.6,2c0.5,2.3,0.6,4.6,0.3,6.9l4.5,1.8l-3.5,8.9
							l-4.2-1.7c-1.3,2-3,3.8-4.9,5.3l1.7,4l-8.8,3.8l-1.7-3.8c-2.4,0.5-5,0.5-7.4,0.2l-1.5,3.8l-8.9-3.5l1.5-3.9
							c-2-1.4-3.8-3.2-5.2-5.2l-3.9,1.7l-3.8-8.8l4.1-1.8c-0.4-2.4-0.3-4.7,0.1-7.1l-4.4-1.7l0.9-2.3c-0.9-0.1-1.8-0.5-2.3-1.2
							c-0.6,0.8-1.5,1.3-2.6,1.3s-2-0.5-2.6-1.3c-0.6,0.8-1.5,1.3-2.6,1.3s-2-0.5-2.6-1.3c-0.6,0.8-1.5,1.3-2.6,1.3s-2-0.5-2.6-1.3
							c-0.6,0.8-1.5,1.3-2.6,1.3c-1.8,0-3.3-1.5-3.3-3.3v-0.5h-13.5v5.8c0,3.4-2.8,6.2-6.2,6.2h-40.3v25c0,0.3,0,0.6-0.1,0.9
							c-0.4,2.1-2.3,3.7-4.6,3.7h-17.4v11.7h-10.6c1.9,0.5,3.1,2.4,2.8,4.4c-0.3,1.9-1.9,3.4-3.9,3.4l-16.4,2.5l16.9,2.4
							c0.7,0.1,1.3,0.4,1.9,0.8c0,0,0.1,0.1,0.1,0.1c0.1,0.1,0.2,0.1,0.2,0.2c0.7,0.6,1.1,1.4,1.2,2.3c0.2,1-0.1,2.1-0.7,3
							c-0.6,0.8-1.6,1.4-2.6,1.6l-16.7,2.5l16.9,2.4c1.1,0.2,2,0.7,2.6,1.5c0.6,0.9,0.9,1.9,0.8,2.9c-0.3,1.9-1.9,3.4-3.9,3.4
							l-15.4,2.3l15.9,2.3c2.2,0.3,3.7,2.3,3.4,4.5c-0.3,1.9-1.9,3.4-3.9,3.4l-16.4,2.4l16.9,2.4c1.1,0.1,2,0.7,2.6,1.5
							c0.6,0.8,0.9,1.9,0.8,2.9c-0.3,1.9-1.9,3.4-3.9,3.4l-16.3,2.4l16.5,2.4c2.2,0.3,3.7,2.3,3.4,4.5c-0.1,0.7-0.4,1.4-0.9,2h8.8
							v11.6h26.3c-2.4-1.2-4.1-3.7-4.1-6.5v-43c0-3.9,3.1-7.1,6.9-7.3V592c0-0.6,0.1-1.1,0.2-1.7c-0.9-0.7-1.4-1.7-1.4-2.8
							c0-2,1.6-3.6,3.6-3.6h9.6c2,0,3.6,1.6,3.6,3.6c0,1.2-0.6,2.3-1.6,3c0.1,0.5,0.2,1,0.2,1.5v6.2h0.7c4,0,7.3,3.3,7.3,7.3v3.1
							v36.5v3.3c0,2.9-1.7,5.3-4.1,6.5H479c-2.4-1.2-4.1-3.7-4.1-6.5v-43c0-3.9,3.1-7.1,6.9-7.3V592c0-0.6,0.1-1.1,0.2-1.7
							c-0.9-0.7-1.4-1.7-1.4-2.8c0-2,1.6-3.6,3.6-3.6h9.5c2,0,3.6,1.6,3.6,3.6c0,1.2-0.6,2.3-1.6,3c0.1,0.5,0.2,1,0.2,1.5v6.2h0.7
							c4,0,7.3,3.3,7.3,7.3v3.1h0v36.5h0v3.3c0,2.9-1.7,5.3-4.1,6.5H517c-2.4-1.2-4.1-3.7-4.1-6.5v-43c0-3.9,3.1-7.1,6.9-7.3V592
							c0-0.6,0.1-1.1,0.2-1.7c-0.9-0.7-1.4-1.7-1.4-2.8c0-2,1.6-3.6,3.6-3.6h9.5c2,0,3.6,1.6,3.6,3.6c0,1.2-0.6,2.3-1.6,3
							c0.1,0.5,0.2,1,0.2,1.5v6.2h0.7c4,0,7.3,3.3,7.3,7.3v3.1h0v36.5h0v3.3c0,2.9-1.7,5.3-4.1,6.5h17.5c-2.4-1.2-4.1-3.7-4.1-6.5
							v-43c0-3.9,3.1-7.1,6.9-7.3V592c0-0.6,0.1-1.1,0.2-1.7c-0.9-0.7-1.4-1.7-1.4-2.8c0-2,1.6-3.6,3.6-3.6h9.6c2,0,3.6,1.6,3.6,3.6
							c0,1.2-0.6,2.3-1.6,3c0.1,0.5,0.2,1,0.2,1.5v6.2h0.7c4,0,7.3,3.3,7.3,7.3v3.1v36.5v3.3c0,2.9-1.7,5.3-4.1,6.5h17.4
							c-2.9-1-5-3.7-5-6.9v-14.3c0-4,3.3-7.3,7.3-7.3h43c3.9,0,7.1,3.1,7.3,6.9h6.2c0.6,0,1.1,0.1,1.7,0.2c0.7-0.9,1.7-1.4,2.8-1.4
							c2,0,3.6,1.6,3.6,3.6v9.5c0,2-1.6,3.6-3.6,3.6c-1.2,0-2.3-0.6-3-1.6c-0.5,0.1-1,0.2-1.5,0.2H646v0.7c0,3.2-2.1,6-5,6.9H726.8z
							 M754,683.9c0-15-12.2-27.1-27.1-27.1h-552c-15,0-27.1,12.2-27.1,27.1c0,15,12.2,27.1,27.1,27.1h552
							C741.8,711,754,698.9,754,683.9z M741,564.9c1.7-0.9,6.2-5,6.2-9.6c0-9.1-7.4-16.5-16.5-16.5h-4.8c-9.1,0-16.5,7.4-16.5,16.5
							c0,4.8,4.6,8.8,6.4,9.7v-6.5c0-7,5.7-12.7,12.7-12.7s12.7,5.7,12.7,12.7V564.9z M737.4,524.4v-15.7h-17.7v15.7h4.1h8.9H737.4z
							 M737.4,507v-12.8h-17.7V507H737.4z M737.4,492.5v-18.8l-18.2,5.4c0.3,0.7,0.5,1.4,0.5,2.2v11.1H737.4z M737.4,471.9v-8.3
							c0-2.7-2.2-5-5-5h-16.2v16.9h-0.2c0.9,0.5,1.7,1.2,2.3,2.1L737.4,471.9z M730.9,537v-10.9h-5.4V537h0.3h4.8H730.9z M714.5,475
							v-16.4h-9.4v16.1h7.8C713.5,474.7,714,474.9,714.5,475z M703.5,528.9v-52.5v-19.5v-6.5c0-1.1-0.9-2.1-2.1-2.1h-86.3
							c-1.1,0-2,0.9-2,2.1v6.5v19.5v19.8h0.1v28l-0.1,0v4.8c0,1.1,0.9,2.1,2,2.1h8.4h21.9h24.3h21.9h9.7
							C702.5,531,703.5,530,703.5,528.9z M701.3,608.4c0.1-0.5,0.1-1,0.1-1.5c0-1-0.1-1.9-0.3-2.9c-0.1-0.3-0.2-0.7-0.2-1
							c-0.1-0.6-0.3-1.1-0.5-1.7c-0.2-0.4-0.3-0.8-0.5-1.2c-0.2-0.4-0.4-0.8-0.7-1.2c-1-1.7-2.3-3.2-3.8-4.5
							c-0.1-0.1-0.3-0.2-0.4-0.3c-0.6-0.4-1.2-0.8-1.8-1.2c-0.1-0.1-0.2-0.1-0.4-0.2c-0.7-0.4-1.4-0.7-2.1-0.9c-1.7-0.6-3.5-1-5.4-1
							h-10c-1.9,0-3.7,0.4-5.4,1c-0.8,0.3-1.5,0.6-2.1,1c-0.1,0-0.2,0.1-0.3,0.2c-0.7,0.4-1.3,0.8-1.9,1.2c-0.1,0.1-0.2,0.1-0.2,0.2
							c-1.7,1.3-3,2.9-4,4.7c-0.2,0.3-0.4,0.7-0.5,1c-0.2,0.4-0.4,0.9-0.5,1.3c-0.2,0.5-0.3,1-0.5,1.5c-0.1,0.4-0.2,0.8-0.3,1.1
							c-0.2,0.9-0.3,1.8-0.3,2.7c0,0,0,0.1,0,0.1c0,0.5,0.1,1,0.1,1.5H701.3z M690.2,589.9v-7.5h-19.6v7.5c1.5-0.4,3.1-0.8,4.8-0.8
							h10C687.1,589.1,688.7,589.4,690.2,589.9z M690.2,580.7v-9h-19.6v9H690.2z M690.2,570v-9h-19.6v9H690.2z M690.2,559.2v-9
							h-19.6v9H690.2z M690.2,548.5v-9h-19.6v9H690.2z M690.2,537.8v-5.1h-19.6v5.1H690.2z M689.2,439.9V384
							c0-16.1-11.6-29.6-27.7-32l-0.7-0.1v-5.6c0-1.9-1.6-3.5-3.5-3.5c-1.9,0-3.5,1.6-3.5,3.5v5.5l-0.8,0.1
							c-16.5,1.8-28.9,15.6-28.9,32.1v55.9H689.2z M685.5,446.6v-5h-4.9v5H685.5z M678.8,446.6v-5H674v5H678.8z M672.2,446.6v-5
							h-4.9v5H672.2z M665.6,446.6v-5h-4.9v5H665.6z M661.5,329.1c0-2.4-1.9-4.3-4.3-4.3c-2.4,0-4.3,1.9-4.3,4.3
							c0,2.4,1.9,4.3,4.3,4.3C659.6,333.4,661.5,331.5,661.5,329.1z M659,446.6v-5h-4.9v5H659z M658.4,645.3v-9.5
							c0-1-0.8-1.7-1.7-1.7c-0.7,0-1.3,0.4-1.6,1l-0.3,0.8l-0.8-0.3c-0.6-0.2-1.2-0.3-1.8-0.3h-8.1v-1.5c0-3-2.4-5.4-5.4-5.4h-43
							c-3,0-5.4,2.4-5.4,5.4v14.3c0,3,2.4,5.4,5.4,5.4h3.3v-21.2h36.5v21.2h3.1c3,0,5.4-2.4,5.4-5.4v-2.5h8.1c0.6,0,1.2-0.1,1.7-0.3
							l0.9-0.3l0.3,0.9c0.2,0.7,0.9,1.2,1.6,1.2C657.6,647,658.4,646.3,658.4,645.3z M655.1,608.4c0.1-0.5,0.1-1,0.1-1.5
							c0-1-0.1-1.9-0.3-2.9c-0.1-0.3-0.2-0.7-0.2-1c-0.1-0.6-0.3-1.1-0.5-1.7c-0.2-0.4-0.3-0.8-0.5-1.2c-0.2-0.4-0.4-0.8-0.6-1.2
							c-1-1.7-2.3-3.2-3.8-4.5c-0.1-0.1-0.3-0.2-0.4-0.3c-0.6-0.4-1.2-0.8-1.8-1.2c-0.1-0.1-0.3-0.1-0.4-0.2
							c-0.7-0.4-1.4-0.7-2.1-0.9c-1.7-0.6-3.5-1-5.4-1h-10c-1.9,0-3.7,0.4-5.4,1h0c-0.7,0.3-1.5,0.6-2.1,1c-0.1,0-0.2,0.1-0.3,0.2
							c-0.7,0.4-1.3,0.8-1.9,1.2c-0.1,0.1-0.2,0.1-0.2,0.2c-1.7,1.3-3,2.9-4,4.7c-0.2,0.3-0.4,0.7-0.5,1c-0.2,0.4-0.4,0.9-0.5,1.3
							c-0.2,0.5-0.3,1-0.5,1.5c-0.1,0.4-0.2,0.8-0.3,1.1c-0.1,0.9-0.3,1.8-0.3,2.7c0,0,0,0.1,0,0.1c0,0.5,0,1,0.1,1.5H655.1z
							 M652.4,446.6v-5h-4.9v5H652.4z M645.8,446.6v-5h-4.9v5H645.8z M644,589.9v-7.5h-19.6v7.5c1.5-0.4,3.1-0.8,4.8-0.8h10
							C640.8,589.1,642.4,589.4,644,589.9z M644,580.7v-9h-19.6v9H644z M644,570v-9h-19.6v9H644z M644,559.2v-9h-19.6v9H644z
							 M644,548.5v-9h-19.6v9H644z M644,537.8v-5.1h-19.6v5.1H644z M639.2,446.6v-5h-4.9v5H639.2z M633.7,653.6v-19.4h-32.8v19.4
							H633.7z M632.5,446.6v-5h-4.9v5H632.5z M611.3,474.7v-16.1h-7.8c-0.6,0-1-0.2-1.5-0.3v16.4H611.3z M611.3,521.8v-23.4
							c-0.3,0.3-0.4,0.6-0.4,1v21.3C610.9,521.2,611,521.6,611.3,521.8z M609.1,300.2v-4.9c-0.3,0.5-0.6,1-1,1.3
							c-1,0.9-2.3,1.4-3.7,1.4c-1.6,0-3.1-0.7-4.2-1.9l-0.4-0.5l0,4.5c0,2.6,2.1,4.7,4.7,4.7S609.1,302.8,609.1,300.2z M608.6,520.8
							v-21.3c0-0.8-0.7-1.5-1.5-1.5c-0.8,0-1.5,0.7-1.5,1.5v21.3c0,0.8,0.7,1.5,1.5,1.5C607.9,522.2,608.6,521.6,608.6,520.8z
							 M608.2,292.7c0-0.4-0.1-0.8-0.2-1.1l0,0c-0.2-0.7-0.4-1.2-0.8-1.6c0,0,0,0,0,0l-13.7-14.5v0.5c0,0.9-0.3,1.7-0.7,2.5
							c-0.1,0.1-0.2,0.2-0.2,0.4c-0.4,0.7-1,1.2-1.7,1.7c0,0,0,0.1-0.1,0.1l-1.5,1.6l10.6,11.3v0l1.5,1.6c1.4,1.5,4,1.7,5.5,0.3
							C607.7,294.7,608.2,293.7,608.2,292.7z M607.3,377.9c0-4.8-4.6-8.8-6.4-9.6v6.6c0,7-5.7,12.7-12.7,12.7
							c-7,0-12.7-5.7-12.7-12.7v-6.5c-1.7,0.9-6.2,5-6.2,9.6c0,9.1,7.4,16.5,16.5,16.5h4.8C599.8,394.5,607.3,387.1,607.3,377.9z
							 M603.4,520.8v-21.3c0-0.8-0.7-1.5-1.5-1.5c-0.8,0-1.5,0.7-1.5,1.5v21.3c0,0.8,0.7,1.5,1.5,1.5
							C602.7,522.2,603.4,521.6,603.4,520.8z M600.3,457.7h0.2c-0.9-0.5-1.7-1.2-2.3-2.1l-19,5.7v8.3c0,2.7,2.2,5,5,5h16.2V457.7z
							 M599.2,374.9V373c-2,4.1-6.2,6.9-11.1,6.9c-4.7,0-8.8-2.6-10.9-6.5v1.4c0,6,4.9,11,11,11
							C594.3,385.8,599.2,380.9,599.2,374.9z M588.1,378c5.8,0,10.5-4.7,10.5-10.5c0-5.8-4.7-10.5-10.5-10.5
							c-5.8,0-10.5,4.7-10.5,10.5C577.6,373.3,582.3,378,588.1,378z M598.2,520.8v-21.3c0-0.8-0.7-1.5-1.5-1.5s-1.5,0.7-1.5,1.5
							v21.3c0,0.8,0.7,1.5,1.5,1.5S598.2,521.6,598.2,520.8z M598.1,293.9l-9.9-10.5l-9.9,10.5c0,0.2,0,0.3,0,0.5v3.6
							c2.3-2.9,5.8-4.8,9.8-4.8c4.1,0,7.7,2,10,5.1v-4C598.1,294.2,598.1,294.1,598.1,293.9z M579.1,459.6l18.2-5.5
							c-0.2-0.7-0.4-1.4-0.4-2.2v-11.1h-17.7V459.6z M596.8,439v-12.8h-17.7V439H596.8z M596.8,424.5v-15.7h-4.1h-8.8h-4.7v15.7
							H596.8z M590.3,315.9c4.8-1,8.3-5.3,8.3-10.3c0-5.8-4.7-10.5-10.5-10.5c-5.8,0-10.5,4.7-10.5,10.5c0,5,3.5,9.3,8.3,10.3H590.3
							z M596.4,264.5v-2.8h-16.6v2.8h2.8h0.2h10.8h0.2H596.4z M593,520.8v-21.3c0-0.8-0.7-1.5-1.5-1.5s-1.5,0.7-1.5,1.5v21.3
							c0,0.8,0.7,1.5,1.5,1.5S593,521.6,593,520.8z M591.9,275.9v-9.6h-7.4v9.6c0,1.3,0.7,2.5,1.9,3.2l0.2,0.2l0.1,0.2
							c0.4,0.2,0.8,0.3,1.3,0.3c0.7,0,1.3-0.2,1.8-0.5l0.1-0.1c0.6-0.3,1-0.8,1.3-1.3c0-0.1,0.1-0.1,0.1-0.2
							C591.7,277.1,591.9,276.5,591.9,275.9z M591,407.1v-10.9h-0.3h-4.8h-0.3v10.9H591z M589.5,355.1v-37.3h-2.7v37.3H589.5z
							 M587.7,520.8v-21.3c0-0.8-0.6-1.5-1.5-1.5s-1.5,0.7-1.5,1.5v21.3c0,0.8,0.7,1.5,1.5,1.5S587.7,521.6,587.7,520.8z M587,282.2
							l-1.2-1.3c-1.9-0.9-3.2-2.8-3.2-5v-0.2l-13.5,14.3c-0.4,0.4-0.6,0.9-0.8,1.6l0,0c-0.1,0.4-0.2,0.7-0.2,1.1c0,1,0.5,2,1.3,2.7
							c0.7,0.6,1.6,1,2.6,1c1.1,0,2.1-0.5,2.9-1.3l1.5-1.6v0L587,282.2z M582.5,520.8v-21.3c0-0.8-0.7-1.5-1.5-1.5s-1.5,0.7-1.5,1.5
							v21.3c0,0.8,0.7,1.5,1.5,1.5S582.5,521.6,582.5,520.8z M578.2,648.5v-3.3H557v-36.5h21.2v-3.1c0-3-2.4-5.4-5.4-5.4h-2.5V592
							c0-0.6-0.1-1.2-0.3-1.7l-0.3-0.9l0.9-0.3c0.7-0.2,1.2-0.9,1.2-1.6c0-1-0.8-1.7-1.7-1.7h-9.6c-0.9,0-1.7,0.8-1.7,1.7
							c0,0.7,0.4,1.3,1,1.6l0.8,0.3l-0.3,0.8c-0.2,0.6-0.3,1.2-0.3,1.8v8.1h-1.5c-3,0-5.4,2.4-5.4,5.4v43c0,3,2.4,5.4,5.4,5.4h14.3
							C575.8,654,578.2,651.5,578.2,648.5z M578.2,643.3v-32.8h-19.4v32.8H578.2z M577.3,520.8v-21.3c0-0.8-0.7-1.5-1.5-1.5
							c-0.8,0-1.5,0.7-1.5,1.5v21.3c0,0.8,0.7,1.5,1.5,1.5C576.7,522.2,577.3,521.6,577.3,520.8z M576.6,300.2v-4.5l-0.5,0.5
							c-1,1.2-2.6,1.8-4.1,1.8c-1.4,0-2.7-0.5-3.7-1.4c-0.4-0.4-0.7-0.9-1-1.3v4.9c0,2.6,2.1,4.7,4.7,4.7c1.9,0,3.6-1.2,4.3-2.8
							c0-0.2,0.1-0.3,0.2-0.5C576.5,301.1,576.6,300.7,576.6,300.2z M572.1,520.8v-21.3c0-0.8-0.7-1.5-1.5-1.5
							c-0.8,0-1.5,0.7-1.5,1.5v21.3c0,0.8,0.7,1.5,1.5,1.5C571.4,522.2,572.1,521.6,572.1,520.8z M566.9,520.8v-21.3
							c0-0.8-0.7-1.5-1.5-1.5s-1.5,0.7-1.5,1.5v21.3c0,0.8,0.6,1.5,1.5,1.5S566.9,521.6,566.9,520.8z M563.5,542.8l2.2-5.5l-4.1-1.6
							l0.1-0.7c0.4-2.5,0.3-5.1-0.3-7.6l-0.2-0.8l4.3-1.8l-0.3-0.6c-1-0.1-1.9-0.5-2.4-1.3c-0.6,0.8-1.5,1.3-2.6,1.3s-2-0.5-2.6-1.3
							c-0.6,0.8-1.5,1.3-2.6,1.3s-2-0.5-2.6-1.3c-0.6,0.8-1.5,1.3-2.6,1.3s-2-0.5-2.6-1.3c-0.6,0.8-1.5,1.3-2.6,1.3s-2-0.5-2.6-1.3
							c-0.6,0.8-1.5,1.3-2.6,1.3c-1.1,0-2-0.5-2.6-1.3c-0.6,0.8-1.5,1.3-2.6,1.3s-2-0.5-2.6-1.3c-0.6,0.8-1.5,1.3-2.6,1.3
							s-2-0.5-2.6-1.3c-0.6,0.8-1.6,1.3-2.6,1.3s-2-0.5-2.6-1.3c-0.2,0.2-0.4,0.5-0.6,0.6l-0.8,1.9l4.1,1.6l-0.2,0.8
							c-0.6,2.6-0.6,5.2-0.1,7.8l0.1,0.7l-3.8,1.6l2.3,5.4l3.7-1.6l0.4,0.7c1.5,2.3,3.4,4.3,5.7,5.8l0.7,0.4l-1.4,3.6l5.4,2.2
							l1.4-3.5l0.8,0.1c2.7,0.5,5.5,0.5,8.2-0.2l0.8-0.2l1.5,3.5l5.4-2.3l-1.6-3.7l0.6-0.4c2.2-1.6,4-3.5,5.4-5.8l0.4-0.7
							L563.5,542.8z M561.7,520.8v-21.3c0-0.8-0.7-1.5-1.5-1.5s-1.5,0.7-1.5,1.5v21.3c0,0.8,0.7,1.5,1.5,1.5
							S561.7,521.6,561.7,520.8z M556.5,520.8v-21.3c0-0.8-0.7-1.5-1.5-1.5s-1.5,0.7-1.5,1.5v21.3c0,0.8,0.7,1.5,1.5,1.5
							S556.5,521.6,556.5,520.8z M551.2,520.8v-21.3c0-0.8-0.7-1.5-1.5-1.5s-1.5,0.7-1.5,1.5v21.3c0,0.8,0.7,1.5,1.5,1.5
							S551.2,521.6,551.2,520.8z M546,520.8v-21.3c0-0.8-0.7-1.5-1.5-1.5c-0.8,0-1.5,0.7-1.5,1.5v21.3c0,0.8,0.7,1.5,1.5,1.5
							C545.4,522.2,546,521.6,546,520.8z M540.8,520.8v-21.3c0-0.8-0.7-1.5-1.5-1.5c-0.8,0-1.5,0.7-1.5,1.5v21.3
							c0,0.8,0.7,1.5,1.5,1.5C540.2,522.2,540.8,521.6,540.8,520.8z M540.6,464.5V350.7c0-1.5-1.2-2.8-2.8-2.8h-33v14.3
							c0,2.5-2,4.4-4.5,4.4h-2.7v97.9c0,1.5,1.3,2.8,2.8,2.8h37.3C539.3,467.3,540.6,466,540.6,464.5z M540,648.5v-3.3h-21.2v-36.5
							H540v-3.1c0-3-2.4-5.4-5.4-5.4H532V592c0-0.6-0.1-1.2-0.3-1.7l-0.3-0.9l0.9-0.3c0.7-0.2,1.2-0.9,1.2-1.6c0-1-0.8-1.7-1.7-1.7
							h-9.5c-1,0-1.7,0.8-1.7,1.7c0,0.7,0.4,1.3,1,1.6l0.8,0.3l-0.3,0.8c-0.2,0.6-0.3,1.2-0.3,1.8v8.1h-1.5c-3,0-5.4,2.4-5.4,5.4v43
							c0,3,2.4,5.4,5.4,5.4h14.3C537.5,654,540,651.5,540,648.5z M540,643.3v-32.8h-19.4v32.8H540z M535.6,520.8v-21.3
							c0-0.8-0.7-1.5-1.5-1.5s-1.5,0.7-1.5,1.5v21.3c0,0.8,0.7,1.5,1.5,1.5S535.6,521.6,535.6,520.8z M530.4,520.8v-21.3
							c0-0.8-0.7-1.5-1.5-1.5s-1.5,0.7-1.5,1.5v21.3c0,0.8,0.7,1.5,1.5,1.5S530.4,521.6,530.4,520.8z M525.2,520.8v-21.3
							c0-0.8-0.7-1.5-1.5-1.5s-1.5,0.7-1.5,1.5v21.3c0,0.8,0.7,1.5,1.5,1.5S525.2,521.6,525.2,520.8z M520,520.8v-21.3
							c0-0.8-0.6-1.5-1.5-1.5s-1.5,0.7-1.5,1.5v21.3c0,0.8,0.7,1.5,1.5,1.5c0.2,0,0.3,0,0.5-0.1l0.2-0.6c0.2,0,0.3,0,0.5,0
							C519.9,521.4,520,521.1,520,520.8z M514.8,520.8v-21.3c0-0.8-0.7-1.5-1.5-1.5s-1.5,0.7-1.5,1.5v21.3c0,0.8,0.7,1.5,1.5,1.5
							S514.8,521.6,514.8,520.8z M509.8,296.5l3.8-28.6h-37.3l3.8,28.6h1.8v0c0.1,0,0.2,0,0.3,0h26.2c0.1,0,0.2,0,0.3,0v0H509.8z
							 M509.6,520.8v-21.3c0-0.8-0.7-1.5-1.5-1.5c-0.8,0-1.5,0.7-1.5,1.5v21.3c0,0.8,0.7,1.5,1.5,1.5
							C508.9,522.2,509.6,521.6,509.6,520.8z M507.3,298.4h-24.2c0.3,1.1,0.7,2.8,1.3,5.6h3h0.9H502h2.7h1.2
							C506.6,301.2,507,299.5,507.3,298.4z M504.4,520.8v-21.3c0-0.8-0.7-1.5-1.5-1.5c-0.8,0-1.5,0.7-1.5,1.5v21.3
							c0,0.8,0.7,1.5,1.5,1.5C503.7,522.2,504.4,521.6,504.4,520.8z M502.9,362.2v-14.3v-42.1H502h-12.7v41.9c0,2.5-2,4.5-4.5,4.5
							H450v12.6h47.7h2.7C501.7,364.8,502.9,363.6,502.9,362.2z M502,648.5v-3.3h-21.2v-36.5H502v-3.1c0-3-2.4-5.4-5.4-5.4H494V592
							c0-0.6-0.1-1.2-0.3-1.7l-0.3-0.9l0.9-0.3c0.7-0.2,1.2-0.9,1.2-1.6c0-1-0.8-1.7-1.7-1.7h-9.5c-1,0-1.7,0.8-1.7,1.7
							c0,0.7,0.4,1.3,1,1.6l0.8,0.3l-0.3,0.8c-0.2,0.6-0.3,1.2-0.3,1.8v8.1h-1.5c-3,0-5.4,2.4-5.4,5.4v43c0,3,2.4,5.4,5.4,5.4h14.3
							C499.5,654,502,651.5,502,648.5z M502,643.3v-32.8h-19.4v32.8H502z M499.1,520.8v-21.3c0-0.8-0.7-1.5-1.5-1.5
							c-0.8,0-1.5,0.7-1.5,1.5v0.1v20.6v0.5c0,0.8,0.6,1.5,1.5,1.5C498.5,522.2,499.1,521.6,499.1,520.8z M494.3,518.4v-16.9h-13.5
							v16.9H494.3z M479,526v-5.8v-20.6v-42.8c0-2.4-2-4.4-4.3-4.4h-58.3v14.8h41.4c3.4,0,6.2,2.8,6.2,6.2V508
							c0,3.4-2.8,6.2-6.2,6.2h-23.4v16.1h40.3C477.1,530.4,479,528.5,479,526z M476.2,423.1c0-0.3,0-0.5,0-0.8c0-0.1,0-0.2,0-0.3
							c0-0.1,0-0.3-0.1-0.5c0-0.1,0-0.3-0.1-0.4c0-0.1-0.1-0.2-0.1-0.3c0-0.2-0.1-0.3-0.1-0.5c0-0.1,0-0.1-0.1-0.2
							c-0.2-0.6-0.5-1.2-0.9-1.8c0,0,0,0,0,0c-0.1-0.2-0.2-0.4-0.4-0.5c0,0-0.1-0.1-0.1-0.1c-0.1-0.2-0.3-0.3-0.4-0.5
							c0,0-0.1-0.1-0.1-0.1c-0.1-0.1-0.3-0.3-0.4-0.5l0,0c-0.5-0.5-1-0.9-1.6-1.2c0,0-0.1,0-0.1-0.1c-0.2-0.1-0.3-0.2-0.5-0.3
							c-0.1,0-0.1-0.1-0.2-0.1c-0.2-0.1-0.4-0.2-0.5-0.2c-0.1,0-0.1,0-0.2-0.1c-0.2-0.1-0.4-0.1-0.6-0.2c-0.8-0.2-1.6-0.4-2.4-0.4
							c-1.2,0-2.4,0.2-3.5,0.7l0,0c-0.2,0.1-0.5,0.2-0.7,0.4c-0.1,0-0.1,0.1-0.2,0.1c-0.2,0.1-0.4,0.2-0.5,0.3
							c-0.1,0-0.1,0.1-0.2,0.1c-0.2,0.1-0.4,0.3-0.6,0.4c0,0,0,0,0,0c-0.4,0.4-0.8,0.7-1.2,1.2c0,0,0,0.1-0.1,0.1
							c-0.2,0.2-0.3,0.4-0.4,0.6c0,0,0,0,0,0c-0.1,0.2-0.3,0.5-0.4,0.7c0,0,0,0.1-0.1,0.1c-0.1,0.2-0.2,0.4-0.3,0.6
							c0,0.1-0.1,0.1-0.1,0.2c-0.1,0.2-0.1,0.4-0.2,0.6c0,0.1,0,0.1,0,0.2c-0.1,0.2-0.1,0.5-0.2,0.7c0,0.1,0,0.1,0,0.2
							c0,0.2-0.1,0.4-0.1,0.6c0,0.1,0,0.2,0,0.2c0,0.3,0,0.5,0,0.8c0,0.3,0,0.6,0,0.9c0.5,4.5,4.3,8,8.9,8
							C472.2,432,476.2,428,476.2,423.1z M469,412.4v-24.2c0-0.9-0.5-1.7-1.3-2.1c-0.1,0-0.1-0.1-0.2-0.1l0,0
							c-0.4-0.2-0.8-0.3-1.2-0.3H450v5.4h14.3v21.6c1-0.3,2-0.4,3-0.4C467.9,412.3,468.4,412.3,469,412.4z M462.1,508v-34.5
							c0-2.4-1.9-4.3-4.3-4.3h-41.4v7.3c0,1-0.4,2-0.9,2.8c1.5,0,2.7,1.2,2.7,2.7c0,0.3-0.1,0.6-0.1,0.8h11.7c2.2,0,4.1,1.6,4.6,3.7
							c0.1,0.3,0.1,0.6,0.1,0.9v24.9h23.4C460.1,512.4,462.1,510.5,462.1,508z M461.6,648.5v-3.3h-21.2v-36.5h21.2v-3.1
							c0-3-2.4-5.4-5.4-5.4h-2.5V592c0-0.6-0.1-1.2-0.3-1.7l-0.3-0.9l0.9-0.3c0.7-0.2,1.2-0.9,1.2-1.6c0-1-0.8-1.7-1.7-1.7h-9.6
							c-0.9,0-1.7,0.8-1.7,1.7c0,0.7,0.4,1.3,1,1.6l0.8,0.3l-0.3,0.8c-0.2,0.6-0.3,1.2-0.3,1.8v8.1h-1.5c-3,0-5.4,2.4-5.4,5.4v43
							c0,3,2.4,5.4,5.4,5.4h14.3C459.2,654,461.6,651.5,461.6,648.5z M461.6,643.3v-32.8h-19.4v32.8H461.6z M448.1,399.3V393H448
							v-9.1h0.1v-17.2v-16.3v-27.8c0-5.7-4.4-10.4-9.8-10.4h-4.5h-5.2h-98.9h-5.2h-7.9c-5.4,0-9.8,4.6-9.8,10.4v24.1v28.7v24.1
							c0,5.7,4.4,10.4,9.8,10.4h8.7h104.3h8.7C443.7,409.7,448.1,405,448.1,399.3z M441.4,250.6c0-5.6-4.6-10.2-10.2-10.2
							c-5.6,0-10.2,4.6-10.2,10.2c0,5.6,4.6,10.2,10.2,10.2C436.9,260.8,441.4,256.2,441.4,250.6z M432.5,557.2v-69.7
							c0-1.5-1.2-2.8-2.8-2.8h-13.9c-0.1,0-0.3,0-0.4,0h-20c-0.1,0-0.3,0-0.4,0h-34.7c-0.1,0-0.3,0-0.4,0h-20c-0.1,0-0.3,0-0.4,0
							h-3.3h-8.9c-1,0-1.8,0.5-2.3,1.2c0,0.1-0.1,0.1-0.1,0.2c0,0.1-0.1,0.2-0.1,0.3c0,0.1-0.1,0.1-0.1,0.2c0,0.1-0.1,0.2-0.1,0.3
							c0,0.1,0,0.1,0,0.2c0,0.2-0.1,0.3-0.1,0.5v14v44.1v11.6c0,0.2,0,0.3,0.1,0.5c0,0.1,0,0.1,0,0.2c0,0.1,0.1,0.2,0.1,0.3
							c0,0.1,0.1,0.1,0.1,0.2c0,0.1,0.1,0.2,0.2,0.3c0,0,0,0.1,0.1,0.2c0.1,0.1,0.2,0.2,0.3,0.3c0,0,0.1,0.1,0.1,0.1
							c0.1,0.1,0.1,0.1,0.2,0.2c0.1,0,0.1,0.1,0.2,0.1c0.1,0,0.1,0.1,0.2,0.1c0.1,0,0.1,0.1,0.2,0.1c0.3,0.1,0.6,0.2,1,0.2h9.6h92.8
							C431.3,560,432.5,558.8,432.5,557.2z M432,310.2v-47.6h-1.5v47.6H432z M428.6,310.2v-47.9c-4.8-1.1-8.6-5-9.3-10l-5.1,4.1
							l-2.9-22.4l-5,25l-7.4-4.7l-7.7,12.6l-6.1-24.8l-7.2,15.1l-8.7-3.2l-6.2,7.8l-7.3-18.5l-8,14.1l-8-5.2
							c-0.7,5.2-4.8,9.4-10,10.3v47.7H428.6z M427.7,414.5v-3H327.2v3c0,1.5,1.2,2.8,2.8,2.8h5h85h5
							C426.5,417.3,427.7,416.1,427.7,414.5z M418.1,421.5v-2.3h-81.3v2.3c0,1.2,0.9,2.1,2.1,2.1H416
							C417.2,423.5,418.1,422.6,418.1,421.5z M415.7,482.9c0.4-0.1,0.6-0.4,0.6-0.8c0-0.5-0.4-0.9-0.9-0.9h-3.7h-12.6h-3.7
							c-0.5,0-0.9,0.4-0.9,0.9c0,0.4,0.3,0.7,0.6,0.8H415.7z M414.5,476.5v-32c0-1.5-1.3-2.8-2.8-2.8h-12.6c-1.5,0-2.8,1.2-2.8,2.8
							v32c0,1.5,1.3,2.8,2.8,2.8h12.6C413.3,479.3,414.5,478,414.5,476.5z M410.5,654.1v-8.8h-8.4h-4.2h-41.2h-10.4v8.8H410.5z
							 M410.5,571.7v-8.8h-64.2v6.3v2.5H389H410.5z M410.1,439.8v-14.4h-9.2v14.4H410.1z M402.9,603.3c0.1-0.6-0.1-1.1-0.4-1.6
							c-0.3-0.4-0.8-0.7-1.4-0.8l-29.5-4.2l29.3-4.4c0.6-0.1,1-0.4,1.4-0.8c0.3-0.5,0.5-1,0.4-1.6c-0.1-0.6-0.4-1-0.7-1.2
							c-0.1-0.1-0.1-0.1-0.2-0.1l-0.1-0.1c-0.3-0.2-0.6-0.4-1-0.4l-29.5-4.2l29.2-4.4h0.1c1.1,0,2-0.8,2.1-1.8
							c0.2-1.1-0.6-2.2-1.8-2.4l-12-1.7h-28.2h-16.2v-4.4h-0.7c-3.8,0-6.8-3.1-6.8-6.8v-0.5h-9.6c-0.1,0-0.2,0-0.3,0v0.5
							c0,9.3,7.5,16.8,16.8,16.8h1.3c7.1,0,12.7-1.8,15.2-5l0.3-0.4l25.2,3.6l-29.3,4.4c-0.6,0.1-1,0.4-1.4,0.8
							c-0.3,0.5-0.5,1-0.4,1.6c0.1,0.6,0.4,1.1,1,1.5c0.1,0,0.1,0.1,0.2,0.1l0.1,0c0.2,0.1,0.4,0.2,0.6,0.2l29.6,4.2l-29.5,4.4
							c-0.6,0.1-1.1,0.4-1.4,0.8c-0.3,0.4-0.5,1-0.4,1.6c0.1,0.9,0.8,1.6,1.7,1.8c0.1,0,0.1,0,0.2,0L386,603l-28,4.2l-0.5-0.1
							c-0.9-0.1-1.7,0.3-2.1,1l-0.1,0.1c-0.3,0.5-0.5,1-0.4,1.6c0.2,1.1,1.2,1.9,2.4,1.8l0.6-0.1l0.1,0l27.9,4l-29.3,4.4
							c-0.6,0.1-1.1,0.4-1.4,0.8c-0.3,0.5-0.5,1-0.4,1.6c0.1,0.9,0.8,1.6,1.7,1.8c0.1,0,0.1,0,0.2,0l29.1,4.2l-29.1,4.3
							c-1,0-1.9,0.8-2.1,1.8c-0.2,1.1,0.5,2.1,1.6,2.3l0.1,0c0,0,0.1,0,0.1,0l29.3,4.2l-16.9,2.5h28.7l3-0.5c0,0,0.1,0,0.1,0
							l0.2-0.1c0.1,0,0.1,0,0.2-0.1c0.1-0.1,0.2-0.1,0.3-0.1c0.6-0.3,1-0.9,1.1-1.5c0.2-1.2-0.6-2.2-1.8-2.4l-29.2-4.2l29-4.3h0.1
							c1.1,0,2-0.8,2.1-1.8c0.1-0.6-0.1-1.1-0.4-1.6s-0.8-0.7-1.4-0.8l-29.5-4.2l29.1-4.3h0.1c1.1,0,2-0.8,2.1-1.8
							c0.2-1.2-0.6-2.2-1.8-2.4l-28.5-4.1l28.1-4.2h0.1C401.9,605.1,402.8,604.3,402.9,603.3z M399,439.8v-14.4h-42.2v14.4
							c2.3,0.3,4,2.2,4,4.6v4.8h33.7v-4.8C394.5,442,396.5,439.9,399,439.8z M395.5,479.3c-0.6-0.8-0.9-1.7-0.9-2.8V469h-33.7v7.5
							c0,1-0.4,2-0.9,2.8c1.5,0,2.7,1.2,2.7,2.7c0,0.3-0.1,0.6-0.1,0.8h30.4c-0.1-0.3-0.1-0.5-0.1-0.8c0-0.8,0.3-1.4,0.8-1.9
							C394,479.6,394.7,479.3,395.5,479.3z M394.5,467.1v-16.1h-33.7v16.1H394.5z M360.1,482.9c0.4-0.1,0.6-0.4,0.6-0.8
							c0-0.5-0.4-0.9-0.9-0.9h-3.7h-12.6h-3.7c-0.5,0-0.9,0.4-0.9,0.9c0,0.4,0.3,0.7,0.6,0.8H360.1z M359,476.5v-32
							c0-1.5-1.3-2.8-2.8-2.8h-12.6c-1.5,0-2.8,1.2-2.8,2.8v32c0,1.5,1.3,2.8,2.8,2.8h12.6C357.7,479.3,359,478,359,476.5z
							 M354.9,439.8v-14.4h-9.2v14.4H354.9z M344.4,567.3v-5.5h-5.6v0.5c0,2.8,2.2,5,5,5H344.4z M343.8,439.8v-14.4h-4.9
							c-2.2,0-4-1.8-4-4v-2.3h-5c-2.6,0-4.7-2.1-4.7-4.7v-3h-8.7c-6.4,0-11.7-5.5-11.7-12.2v-20.4c-0.8,0.6-1.7,0.9-2.8,0.9h-7.5
							c-2.6,0-4.7-2.1-4.7-4.6v-5.5h-21l-3.6,9l-5.9-2.4c-2,3.1-4.4,5.7-7.4,7.9l2.4,5.6l-10.9,4.7v50.2c0,2.4,1.9,4.4,4.4,4.4h90.9
							v1.9H248c-3.4,0-6.2-2.8-6.2-6.2v-61.3c-2.3,0.7-4.8,1.1-7.3,1.1c-2.7,0-5.3-0.4-7.7-1.2v78.1c0,2.4,1.9,4.3,4.4,4.3h107.8
							v1.9h-73.1h-34.7c-3.4,0-6.2-2.8-6.2-6.2v-67.1l-9.8-3.9l2.2-5.5c-3.1-2.1-5.7-4.7-7.8-7.8l-5.6,2.4l-4.3-9.9h-9.2
							c-1.4,0-2.6,1.2-2.6,2.6v150.2c0,0.2,0,0.4,0,0.6c0,0.1,0,0.1,0,0.2c0,0.2-0.1,0.4-0.1,0.5c0,0,0,0,0,0
							c-0.1,0.2-0.1,0.4-0.2,0.6c0,0,0,0,0,0.1c-0.1,0.2-0.2,0.4-0.3,0.5v42.4c0,2.8,2.1,5,4.7,5c2.6,0,4.7-2.2,4.7-5v-82.2
							c0-10.3,8.4-18.7,18.7-18.7h1.3c10.3,0,18.7,8.4,18.7,18.7v74.6c0,2.8,2.2,5,5,5h2.2c2.8,0,5-2.2,5-5v-70.5
							c0-10.3,8.2-18.7,18.4-18.7c10.1,0,18.4,8.4,18.4,18.7v73c0,2.8,2.2,5,5,5h3.2c2.7,0,5-2.2,5-5v-72.8
							c0-10.3,8.4-18.7,18.7-18.7h4.1c3.7,0,7.2,1.1,10.2,3s5.4,4.7,6.9,8.1c0-1.5,1.2-2.7,2.7-2.7c-0.6-0.8-0.9-1.8-0.9-2.8v-10.7
							v-16.6v-4.8c0-2.6,2.1-4.7,4.7-4.7H343.8z M327.3,482.9h8.2c-2.7-6.1-8.7-10.1-15.4-10.1H316c-9.3,0-16.8,7.5-16.8,16.8v27.1
							l3.7-9.4l5.2,2.1c0.3-0.4,0.7-0.9,1-1.3v-18.5c0-3.8,3.1-6.9,6.9-6.9h4.1c1.5,0,2.9,0.5,4.1,1.4
							C325,483.3,326.1,482.9,327.3,482.9z M338,250.6c0-5.6-4.6-10.2-10.2-10.2c-5.6,0-10.2,4.6-10.2,10.2
							c0,5.6,4.6,10.2,10.2,10.2C333.4,260.8,338,256.2,338,250.6z M327.9,310.2v-47.6h-1.5v47.6H327.9z M323,485.6
							C323,485.6,323,485.6,323,485.6c-0.8-0.7-1.9-1-2.9-1H316c-2.8,0-5,2.2-5,5v16.5c0.2-0.1,0.3-0.3,0.5-0.4
							c0.3-0.2,0.5-0.5,0.8-0.7c0.4-0.3,0.8-0.7,1.3-1c0.1,0,0.1-0.1,0.2-0.1l-2.3-5.4l9.8-4.2l1.4,3.1v-9.9c0-0.2,0-0.3,0-0.5
							c0,0,0-0.1,0-0.1c0-0.1,0-0.2,0.1-0.3c0,0,0,0,0,0c0,0,0-0.1,0-0.1c0-0.1,0-0.2,0.1-0.3c0,0,0-0.1,0.1-0.1
							C322.9,485.8,323,485.7,323,485.6z M322.6,648.5v-3.3h-21.2v-36.5h21.2v-3.1c0-3-2.4-5.4-5.4-5.4h-2.5V592
							c0-0.6-0.1-1.2-0.3-1.7l-0.3-0.9l0.9-0.3c0.7-0.2,1.2-0.9,1.2-1.6c0-1-0.8-1.7-1.7-1.7h-9.5c-1,0-1.7,0.8-1.7,1.7
							c0,0.7,0.4,1.3,1,1.6l0.8,0.3l-0.3,0.8c-0.2,0.6-0.3,1.2-0.3,1.8v8.1h-1.5c-3,0-5.4,2.4-5.4,5.4v43c0,3,2.4,5.4,5.4,5.4h14.3
							C320.2,654,322.6,651.5,322.6,648.5z M322.6,643.3v-32.8h-19.4v32.8H322.6z M322.6,545.4v-12.9c-4.5-0.4-8.1-4.2-8.1-8.9
							c0-4.6,3.6-8.4,8.1-8.8v-12.9l-0.1,0l-2.2-5.2l-6.4,2.8l2.2,5.1l-0.6,0.4c-0.4,0.3-0.8,0.5-1.2,0.8c-0.1,0.1-0.1,0.1-0.2,0.2
							c-1.2,0.9-2.3,1.9-3.2,3.1l-0.3,0.3c-0.4,0.5-0.9,1.1-1.2,1.7l-0.4,0.6l-4.9-1.9l-2.6,6.5l4.7,1.9l-0.2,0.8
							c-0.7,3-0.7,6-0.1,9l0.1,0.7l-4.3,1.9l2.8,6.4l4.2-1.8l0.4,0.7c0.5,0.8,1,1.5,1.6,2.2l0.3,0.3c0.7,0.8,1.4,1.5,2.2,2.2
							c0,0,0,0,0.1,0c0.3,0.3,0.7,0.6,1,0.8c0.1,0.1,0.2,0.1,0.2,0.2c0.4,0.3,0.8,0.6,1.2,0.8c0,0,0,0,0,0l0.1,0.1l0.5,0.3l-1.6,4.1
							l6.5,2.6L322.6,545.4z M322.5,530.6c0.1-2.8,0.1-11.2,0-14c-3.5,0.4-6.2,3.4-6.2,7C316.4,527.2,319,530.2,322.5,530.6z
							 M309.1,562.4v-23.3c-0.5-0.6-0.9-1.1-1.3-1.8l-4.5,1.9l-4.2-9.7v32.8c0,3.8-3.1,6.8-6.8,6.8h-3.2c-3.8,0-6.9-3.1-6.9-6.8v-73
							c0-9.3-7.4-16.8-16.5-16.8c-9.1,0-16.6,7.5-16.6,16.8v70.5c0,3.8-3.1,6.8-6.9,6.8h-2.2c-3.8,0-6.9-3.1-6.9-6.8v-74.6
							c0-9.3-7.5-16.8-16.8-16.8h-1.3c-9.3,0-16.8,7.5-16.8,16.8v82.2c0,3.8-2.9,6.9-6.6,6.9c-3.6,0-6.6-3.1-6.6-6.9v-40.8
							c-0.6,0.2-1.2,0.4-1.8,0.4h-8.1v40.4c0,9.3,7.4,16.8,16.5,16.8c9.1,0,16.6-7.5,16.6-16.8v-82.2c0-3.8,3.1-6.8,6.8-6.8h1.3
							c3.8,0,6.8,3.1,6.8,6.8v74.6c0,9.3,7.5,16.8,16.8,16.8h2.2c9.3,0,16.8-7.5,16.8-16.8v-70.5c0-3.8,3-6.9,6.6-6.9
							c3.6,0,6.6,3.1,6.6,6.9v73c0,9.3,7.5,16.8,16.8,16.8h3.2C301.6,579.2,309.1,571.6,309.1,562.4z M304.9,375.2v-28.7
							c0-1.5-1.2-2.8-2.8-2.8h-7.5c-1.5,0-2.8,1.2-2.8,2.8v6.5v16.7v5.5c0,1.5,1.3,2.8,2.8,2.8h7.5
							C303.7,378,304.9,376.8,304.9,375.2z M303.9,519.2l-4.7-1.9v12.1l4.6-2C303.4,524.7,303.4,521.9,303.9,519.2z M290,367.9V355
							h-33.3l-0.2-0.7c-2.6-10-11.7-17-22-17c-10.4,0-19.4,7-22,17l-0.2,0.7H175c-1.4,0-2.6,1.2-2.6,2.6v111.3v10.8v28.4
							c0,2.4-2,4.4-4.4,4.4h-7.7h-10h-15v12.6h15h10h15h8.1c0.8,0,1.6-0.4,2.1-1c0.1-0.1,0.1-0.2,0.2-0.2c0,0,0.1-0.1,0.1-0.2
							c0-0.1,0.1-0.2,0.1-0.2c0-0.1,0.1-0.2,0.1-0.3c0,0,0-0.1,0-0.2c0-0.1,0.1-0.3,0.1-0.5V372.4c0-2.5,2-4.5,4.4-4.5h22.7l0.2,0.6
							c3.5,8.7,11.8,14.3,21.1,14.3c9.4,0,17.7-5.6,21.2-14.3l0.2-0.6H290z M284.4,648.5v-3.3h-21.2v-36.5h21.2v-3.1
							c0-3-2.4-5.4-5.4-5.4h-2.5V592c0-0.6-0.1-1.2-0.3-1.7l-0.3-0.9l0.9-0.3c0.7-0.2,1.2-0.9,1.2-1.6c0-1-0.8-1.7-1.7-1.7h-9.6
							c-0.9,0-1.7,0.8-1.7,1.7c0,0.7,0.4,1.3,1,1.6l0.8,0.3l-0.3,0.8c-0.2,0.6-0.3,1.2-0.3,1.8v8.1h-1.5c-3,0-5.4,2.4-5.4,5.4v43
							c0,3,2.4,5.4,5.4,5.4H279C282,654,284.4,651.5,284.4,648.5z M284.4,643.3v-32.8H265v32.8H284.4z M267.6,350.2l-3.6-8.5
							l-6.4,2.8l-0.4-0.6c-2.1-3-4.7-5.4-7.8-7.4l-0.7-0.4l2.7-6.7l-8.6-3.4l-2.7,6.7l-0.8-0.1c-3.5-0.6-7.1-0.6-10.6,0.1l-0.7,0.1
							l-2.8-6.6l-8.5,3.6l2.8,6.4l-0.7,0.4c-3.1,2-5.7,4.6-7.8,7.6l-0.4,0.6l-6.2-2.4l-3.4,8.5l4.9,1.9h4.9
							c3.1-10.4,12.7-17.7,23.6-17.7c11,0,20.6,7.2,23.6,17.7h3.3l-0.1-0.2L267.6,350.2z M264.4,376.4l2.6-6.6h-9.9
							c-2.6,6.1-7.5,10.8-13.4,13.1v9.7l0,0l8.5-3.6l-2.3-5.3l0.6-0.4c3.2-2.3,5.9-5.1,7.9-8.5l0.4-0.7L264.4,376.4z M246.4,648.5
							v-3.3h-21.2v-36.5h21.2v-3.1c0-3-2.4-5.4-5.4-5.4h-2.5V592c0-0.6-0.1-1.2-0.3-1.7l-0.3-0.9l0.9-0.3c0.7-0.2,1.2-0.9,1.2-1.6
							c0-1-0.8-1.7-1.7-1.7h-9.6c-0.9,0-1.7,0.8-1.7,1.7c0,0.7,0.4,1.3,1,1.6l0.8,0.3l-0.3,0.8c-0.2,0.6-0.3,1.2-0.3,1.8v8.1h-1.5
							c-3,0-5.4,2.4-5.4,5.4v43c0,3,2.4,5.4,5.4,5.4h14.3C243.9,654,246.4,651.5,246.4,648.5z M246.4,643.3v-32.8H227v32.8H246.4z
							 M224.9,392.4v-9.7c-5.8-2.4-10.5-7-13.1-13h-10.2l3.2,7.5l5.3-2.3l0.4,0.7c2.2,3.4,5,6.2,8.3,8.3l0.7,0.4l-2.1,5.1
							L224.9,392.4z M173.3,628.6l-6.6-9.2h-4.7h-13.7h-6.6l-6.3,8.8L173.3,628.6z M170.5,508.1v-27.4c-0.7-0.3-1.4-0.5-2.1-0.5
							h-1.3c-2.8,0-5,2.2-5,5v25.4h5.8C169.4,510.7,170.5,509.5,170.5,508.1z M170.5,478.8v-10.2c-0.7-0.1-1.4-0.2-2.1-0.2h-1.3
							c-9.3,0-16.8,7.5-16.8,16.8v25.4h10v-25.4c0-3.8,3.1-6.8,6.8-6.8h1.3C169.1,478.4,169.8,478.5,170.5,478.8z M160.2,617.5V527
							h-10v90.5H160.2z M133.4,543.7V527v-16.4v-9.2c0-1.5-1.2-2.8-2.8-2.8h-6.8v47.8h6.8C132.1,546.5,133.4,545.2,133.4,543.7z
							 M121.9,710.7v-10.2h-5.6H59.9h-3.8v10.2H121.9z M121.9,589.4v-42.9v-47.8v-11.1c0-1.5-1.2-2.8-2.8-2.8H103H71.5H55.7
							c-1.5,0-2.8,1.2-2.8,2.8v11.1v47.8v42.9c0,1.5,1.2,2.8,2.8,2.8h63.4C120.7,592.2,121.9,590.9,121.9,589.4z M121.5,387.4
							c0-0.5,0-1.1,0-1.6c0-0.1,0-0.2,0-0.3c-1-18.3-16.2-32.9-34.7-32.9c-18.5,0-33.7,14.6-34.7,32.9c0,0.1,0,0.2,0,0.3
							c0,0.5,0,1.1,0,1.6c0,0.5,0,1.1,0,1.6c0,0.1,0,0.3,0,0.4c0,0.4,0.1,0.9,0.1,1.3c0,0.1,0,0.2,0,0.3
							c1.3,12.2,8.9,22.5,19.5,27.7c0,0,0.1,0,0.1,0c0.4,0.2,0.9,0.4,1.3,0.6c0.1,0.1,0.2,0.1,0.3,0.1c4.1,1.7,8.7,2.7,13.4,2.7
							c13.8,0,25.7-8,31.3-19.6c0,0,0.1-0.1,0.1-0.1c0.2-0.5,0.5-1,0.7-1.5c0.2-0.5,0.4-0.9,0.5-1.4c0.1-0.2,0.1-0.3,0.2-0.5
							c0.1-0.3,0.2-0.6,0.3-1c0.1-0.2,0.1-0.3,0.2-0.5c0.1-0.5,0.3-0.9,0.4-1.4c0-0.2,0.1-0.4,0.1-0.5c0.1-0.3,0.2-0.6,0.2-1
							c0-0.2,0.1-0.4,0.1-0.6c0.1-0.3,0.1-0.7,0.2-1c0-0.2,0.1-0.3,0.1-0.5c0.1-0.5,0.1-1,0.2-1.5c0-0.2,0-0.3,0-0.5
							c0-0.4,0.1-0.8,0.1-1.1c0-0.2,0-0.3,0-0.5C121.5,388.5,121.5,387.9,121.5,387.4z M114.4,698.6v-10.2h-5H65.2h-3.4v10.2H114.4z
							 M107.6,686.6v-92.4H96.7v92.4H107.6z M101.6,218.2l3.8-28.6H68l3.8,28.6H101.6z M104.3,355.3v-5.1c0-3.9-3.2-7.1-7.1-7.1H94
							H79.4h-3.2c-3.9,0-7.1,3.2-7.1,7.1v5.1c5.2-2.9,11.2-4.5,17.6-4.5C93.1,350.7,99.1,352.4,104.3,355.3z M104.3,263.7v-7.4
							c0-0.2-0.2-0.4-0.4-0.4h-5.3H74.7h-5.2c-0.2,0-0.4,0.2-0.4,0.4v7.4c0,0.2,0.2,0.4,0.4,0.4H77h19.4h7.5
							C104.2,264.1,104.3,264,104.3,263.7z M101.2,482.9v-16.1c0-1.5-1.2-2.8-2.8-2.8h-4.7H79.8h-3.6c-1.5,0-2.8,1.2-2.8,2.8v16.1
							H101.2z M101.5,423.3c0-0.8-0.3-1.5-0.8-2.1c-4.3,1.8-9.1,2.8-14,2.8c-4.6,0-9.1-0.9-13.2-2.5c-0.3,0.5-0.5,1.1-0.5,1.7
							c0,1.8,1.5,3.3,3.3,3.3h3.4h13.9h4.5C100,426.6,101.5,425.1,101.5,423.3z M96.8,297.9v-9.1H76.6v9.1c0,0.2,0.2,0.4,0.4,0.4
							h2.7h13.9h2.7C96.6,298.3,96.8,298.1,96.8,297.9z M96.8,286.9v-13.6H76.6v13.6H96.8z M96.8,271.5v-5.1c0-0.2-0.2-0.4-0.4-0.4
							H77c-0.2,0-0.4,0.2-0.4,0.4v5.1H96.8z M96.8,254.1v-33.7H76.6v33.7H96.8z M96.8,338.5c0-1.5-1.2-2.8-2.8-2.8h-0.4H79.8h-0.4
							c-1.5,0-2.8,1.2-2.8,2.8c0,1.5,1.2,2.8,2.8,2.8H94C95.6,341.2,96.8,340,96.8,338.5z M94.9,686.6v-92.4h-6.5v92.4H94.9z
							 M91.8,462.2v-33.7H81.6v33.7H91.8z M91.8,333.9v-33.7H81.6v33.7H91.8z M86.5,686.6v-92.4H67v92.4H86.5z M51.1,546.5v-47.8
							h-8.2c-1.5,0-2.8,1.2-2.8,2.8v42.2c0,1.5,1.3,2.8,2.8,2.8H51.1z"/>
						<path class="st0" d="M729.8,675.5c4.3,0,7.8,3.5,7.8,7.8c0,4.3-3.5,7.8-7.8,7.8c-4.3,0-7.8-3.5-7.8-7.8
							C722.1,679,725.5,675.5,729.8,675.5z M735.9,683.3c0-3.3-2.7-6.1-6-6.1s-6,2.7-6,6.1c0,3.3,2.7,6,6,6S735.9,686.6,735.9,683.3
							z"/>
						<path class="st1" d="M729.8,677.2c3.3,0,6,2.7,6,6.1c0,3.3-2.7,6-6,6s-6-2.7-6-6C723.8,679.9,726.5,677.2,729.8,677.2z"/>
						<path class="st0" d="M698.3,229v5.8c0,3.5-2.9,6.4-6.4,6.4c-3.5,0-6.4-2.9-6.4-6.4V229c0-0.2,0-0.3,0.1-0.5l-9.9-10.6
							l-9.9,10.6c0,0.2,0.1,0.3,0.1,0.5v5.8c0,3.5-2.9,6.4-6.4,6.4c-3.5,0-6.4-2.9-6.4-6.4V229c0-1.2,0.4-2.3,1.1-3.4
							c0.2-0.8,0.6-1.6,1.2-2.2l14.7-15.7v-6.9h-4.5v-6.2h20v6.2h-4.3v6.9l14.7,15.6c0.6,0.7,1,1.4,1.2,2.2
							C698,226.7,698.3,227.8,698.3,229z M696.6,234.8v-4.9c-0.3,0.5-0.6,0.9-1,1.3c-1,0.9-2.3,1.4-3.7,1.4c-1.6,0-3.1-0.7-4.1-1.9
							l-0.4-0.4l0,4.5c0,2.6,2.1,4.7,4.7,4.7C694.5,239.4,696.6,237.4,696.6,234.8z M694.5,229.9c1.1-1,1.5-2.4,1.1-3.8l0,0
							c-0.2-0.7-0.4-1.2-0.8-1.6c0,0,0,0,0,0l-13.7-14.5v0.5c0,0.9-0.3,1.7-0.7,2.5c-0.1,0.1-0.2,0.2-0.2,0.4
							c-0.4,0.7-1,1.3-1.7,1.7c0,0-0.1,0.1-0.1,0.1l-1.5,1.6l10.6,11.3v0l1.5,1.6C690.4,231.1,693,231.3,694.5,229.9z M683.9,199.1
							v-2.8h-16.6v2.8h2.8h0.2h10.8h0.2H683.9z M679.4,210.4v-9.6H672v9.6c0,1.3,0.7,2.5,1.9,3.2l0.2,0.2l0.2,0.1
							c0.4,0.2,0.8,0.3,1.3,0.3c0.7,0,1.3-0.2,1.8-0.5l0-0.1c0.6-0.3,1-0.8,1.3-1.3c0-0.1,0.1-0.1,0.1-0.2
							C679.2,211.6,679.4,211.1,679.4,210.4z M674.6,216.7l-1.2-1.3c-1.9-0.9-3.2-2.8-3.2-5v-0.2l-13.4,14.3
							c-0.4,0.4-0.6,0.9-0.8,1.6l0,0.1c-0.3,1.3,0,2.8,1.1,3.8c0.7,0.6,1.6,1,2.6,1c1.1,0,2.1-0.5,2.9-1.3l1.5-1.6v0L674.6,216.7z
							 M664.1,234.8v-4.5l-0.5,0.5c-1,1.2-2.6,1.8-4.1,1.8c-1.4,0-2.7-0.5-3.7-1.4c-0.4-0.4-0.7-0.9-1-1.3v4.9
							c0,2.6,2.1,4.7,4.7,4.7S664.1,237.4,664.1,234.8z"/>
						<path class="st0" d="M695.7,682.3c1.7,0,3.1,1.4,3.1,3.1s-1.4,3.1-3.1,3.1h-20.4c-1.7,0-3.1-1.4-3.1-3.1s1.4-3.1,3.1-3.1
							H695.7z M696.8,685.4c0-0.7-0.5-1.2-1.2-1.2h-20.4c-0.7,0-1.2,0.5-1.2,1.2c0,0.7,0.5,1.2,1.2,1.2h20.4
							C696.3,686.6,696.8,686.1,696.8,685.4z"/>
						<path class="st0" d="M691.2,482.6c3.2,0,5.8,2.6,5.8,5.8c0,3.2-2.6,5.8-5.8,5.8s-5.8-2.6-5.8-5.8
							C685.5,485.2,688.1,482.6,691.2,482.6z M695.3,488.4c0-2.2-1.8-4.1-4.1-4.1s-4.1,1.8-4.1,4.1s1.8,4.1,4.1,4.1
							S695.3,490.6,695.3,488.4z"/>
						<path class="st0" d="M691.2,497.1c3.2,0,5.8,2.6,5.8,5.8c0,3.2-2.6,5.8-5.8,5.8s-5.8-2.6-5.8-5.8
							C685.5,499.7,688.1,497.1,691.2,497.1z M695.3,502.9c0-2.2-1.8-4.1-4.1-4.1s-4.1,1.8-4.1,4.1c0,2.2,1.8,4.1,4.1,4.1
							S695.3,505.1,695.3,502.9z"/>
						<path class="st0" d="M691.2,511.6c3.2,0,5.8,2.6,5.8,5.8c0,3.2-2.6,5.8-5.8,5.8s-5.8-2.6-5.8-5.8
							C685.5,514.2,688.1,511.6,691.2,511.6z M695.3,517.4c0-2.2-1.8-4.1-4.1-4.1s-4.1,1.8-4.1,4.1c0,2.2,1.8,4.1,4.1,4.1
							S695.3,519.6,695.3,517.4z"/>
						<path class="st1" d="M691.2,498.8c2.2,0,4.1,1.8,4.1,4.1c0,2.2-1.8,4.1-4.1,4.1s-4.1-1.8-4.1-4.1
							C687.2,500.7,689,498.8,691.2,498.8z"/>
						<path class="st0" d="M693.5,226c0,1.2-1,2.3-2.3,2.3c-1.2,0-2.3-1-2.3-2.3c0-1.2,1-2.2,2.3-2.2
							C692.5,223.8,693.5,224.8,693.5,226z"/>
						<path class="st0" d="M685.6,187.6v6.2h-20v-6.2h3.5v-2.8h-3.5v-6.2h3.5V92c0.6-0.1,1.2-0.3,1.7-0.5v87h9.6V88
							c0.6-0.3,1.1-0.5,1.7-0.8v91.3h3.5v6.2h-3.5v2.8H685.6z M683.9,192.1v-2.8h-16.6v2.8H683.9z M683.9,183v-2.8h-16.6v2.8H683.9z
							 M680.4,187.6v-2.8h-9.6v2.8H680.4z"/>
						<path class="st0" d="M670.8,379.3c5.9,0,10.7,4.8,10.7,10.7c0,5.9-4.8,10.7-10.7,10.7h-29.6c-5.9,0-10.7-4.8-10.7-10.7
							c0-5.9,4.8-10.7,10.7-10.7H670.8z M679.8,390c0-5-4-9-9-9h-29.6c-5,0-9,4-9,9c0,5,4,9,9,9h29.6C675.8,399,679.8,395,679.8,390
							z"/>
						<path class="st0" d="M675.5,206.6c1.2,0,2.3,1,2.3,2.3c0,1.2-1,2.2-2.3,2.2c-1.2,0-2.2-1-2.2-2.2
							C673.3,207.7,674.3,206.6,675.5,206.6z"/>
						<path class="st0" d="M669.4,382c4.4,0,8,3.6,8,8c0,4.4-3.6,8-8,8h-26.7c-4.4,0-8-3.6-8-8c0-4.4,3.6-8,8-8H669.4z M675.7,390
							c0-3.5-2.8-6.3-6.3-6.3h-26.7c-3.5,0-6.3,2.8-6.3,6.3c0,3.5,2.8,6.3,6.3,6.3h26.7C672.9,396.3,675.7,393.5,675.7,390z"/>
						<path class="st0" d="M660.1,223.8c1.2,0,2.3,1,2.3,2.2c0,1.2-1,2.3-2.3,2.3c-1.2,0-2.3-1-2.3-2.3
							C657.9,224.8,658.9,223.8,660.1,223.8z"/>
						<path class="st0" d="M652,675.5c4.9,0,8.9,4,8.9,8.8s-4,8.9-8.9,8.9s-8.8-4-8.8-8.9S647.1,675.5,652,675.5z M659.1,684.4
							c0-3.9-3.2-7.1-7.1-7.1c-3.9,0-7.1,3.2-7.1,7.1c0,3.9,3.2,7.1,7.1,7.1C655.9,691.5,659.1,688.3,659.1,684.4z"/>
						<path class="st0" d="M654,475.5c0,7.7-6.3,14-14,14c-7.7,0-14-6.3-14-14c0-7.7,6.3-14,14-14C647.7,461.5,654,467.8,654,475.5z
							 M652.3,475.5c0-6.5-5.1-11.8-11.5-12.2v8.7h-1.7v-8.7c-6.4,0.5-11.5,5.7-11.5,12.2c0,6.8,5.5,12.3,12.3,12.3
							C646.8,487.8,652.3,482.3,652.3,475.5z"/>
						<path class="st0" d="M640,456.9c10.3,0,18.7,8.4,18.7,18.7c0,10.3-8.4,18.7-18.7,18.7c-10.3,0-18.7-8.4-18.7-18.7
							C621.3,465.2,629.7,456.9,640,456.9z M657,475.5c0-9.3-7.6-16.9-17-16.9c-9.4,0-17,7.6-17,16.9c0,9.4,7.6,17,17,17
							C649.4,492.5,657,484.9,657,475.5z"/>
						<path class="st0" d="M627.4,682.3c1.7,0,3.1,1.4,3.1,3.1s-1.4,3.1-3.1,3.1h-20.4c-1.7,0-3.1-1.4-3.1-3.1s1.4-3.1,3.1-3.1
							H627.4z M628.6,685.4c0-0.7-0.5-1.2-1.2-1.2h-20.4c-0.7,0-1.2,0.5-1.2,1.2c0,0.7,0.5,1.2,1.2,1.2h20.4
							C628.1,686.6,628.6,686.1,628.6,685.4z"/>
						<path class="st0" d="M606,291.5c0,1.2-1,2.3-2.3,2.3c-1.2,0-2.2-1-2.2-2.3c0-1.2,1-2.2,2.2-2.2C605,289.2,606,290.2,606,291.5
							z"/>
						<path class="st1" d="M598.6,367.5c0,5.8-4.7,10.5-10.5,10.5c-5.8,0-10.5-4.7-10.5-10.5c0-5.8,4.7-10.5,10.5-10.5
							C593.9,357,598.6,361.7,598.6,367.5z"/>
						<path class="st0" d="M598.1,253v6.2h-20V253h3.5v-2.8h-3.5V244h3.5V114.8c0.6-0.8,1.2-1.7,1.7-2.5V244h9.6V97.6
							c0.6-0.1,1.2-0.2,1.7-0.2V244h3.5v6.2h-3.5v2.8H598.1z M596.4,257.5v-2.8h-16.6v2.8H596.4z M596.4,248.5v-2.8h-16.6v2.8H596.4
							z M592.9,253v-2.8h-9.6v2.8H592.9z"/>
						<path class="st0" d="M596.1,559.3l-2.7,6.7l-2.9-1.2c-0.9,1.3-1.9,2.4-3.1,3.4l1.2,2.8l-6.6,2.8l-1.2-2.7
							c-1.6,0.3-3.2,0.3-4.7,0.1l-1.1,2.7l-6.7-2.7l1.1-2.7c-1.3-0.9-2.4-2-3.3-3.3l-2.8,1.2l-2.8-6.6l2.9-1.2c-0.2-1.5-0.2-3,0-4.5
							l-3-1.2l2.6-6.7l3.2,1.3c0.9-1.1,1.9-2.1,3-3l-1.4-3.3l6.6-2.8l1.5,3.4c1.4-0.2,2.8-0.2,4.1,0l1.4-3.5l6.7,2.7l-1.4,3.4
							c1.1,0.8,2.1,1.8,3,2.9l3.4-1.4l2.8,6.6l-3.2,1.4c0.3,1.4,0.3,2.9,0.2,4.3L596.1,559.3z M592.4,563.5l1.3-3.2l-2.8-1.1
							l0.1-0.7c0.3-1.7,0.2-3.4-0.2-5.1l-0.2-0.8l2.9-1.3l-1.4-3.2l-3,1.3l-0.4-0.6c-1-1.4-2.2-2.5-3.6-3.4l-0.7-0.4l1.2-3.1
							l-3.2-1.3l-1.2,3.2l-0.8-0.1c-1.6-0.3-3.3-0.3-4.9,0l-0.7,0.2l-1.3-3.1l-3.2,1.4l1.3,3l-0.7,0.4c-1.4,0.9-2.7,2.1-3.6,3.5
							l-0.4,0.6l-2.9-1.2l-1.3,3.2l2.8,1.1l-0.2,0.8c-0.4,1.7-0.4,3.5-0.1,5.3l0.2,0.7l-2.6,1.1l1.4,3.2l2.5-1.1l0.4,0.7
							c1,1.6,2.3,2.9,3.8,3.9l0.7,0.4l-1,2.4l3.2,1.3l0.9-2.4l0.8,0.2c1.8,0.3,3.7,0.3,5.5-0.1l0.8-0.2l1,2.4l3.2-1.4l-1.1-2.5
							l0.6-0.4c1.5-1.1,2.7-2.4,3.7-3.9l0.4-0.7L592.4,563.5z"/>
						<path class="st0" d="M576.3,664.2c10.5,0,19.1,8.6,19.1,19.1c0,10.5-8.6,19.1-19.1,19.1c-10.5,0-19.1-8.6-19.1-19.1
							C557.2,672.7,565.7,664.2,576.3,664.2z M593.6,683.3c0-9.6-7.8-17.4-17.4-17.4c-9.6,0-17.4,7.8-17.4,17.4
							c0,9.6,7.8,17.4,17.4,17.4C585.8,700.6,593.6,692.8,593.6,683.3z"/>
						<path class="st0" d="M588,272.1c1.2,0,2.2,1,2.2,2.3c0,1.2-1,2.2-2.2,2.2c-1.2,0-2.3-1-2.3-2.2
							C585.8,273.1,586.8,272.1,588,272.1z"/>
						<path class="st0" d="M582.2,554.7c0.5,1.1,0.5,2.3,0,3.4c-0.7,1.7-2.3,2.8-4.1,2.8c-0.6,0-1.1-0.1-1.6-0.3
							c-1.1-0.4-1.9-1.3-2.4-2.3s-0.5-2.3,0-3.3c0.7-1.7,2.3-2.8,4.1-2.8c0.6,0,1.1,0.1,1.6,0.3
							C580.8,552.8,581.7,553.6,582.2,554.7z M580.5,557.4c0.2-0.6,0.2-1.3,0-1.9c-0.3-0.6-0.8-1.1-1.4-1.3
							c-0.3-0.1-0.6-0.2-0.9-0.2c-1,0-2,0.6-2.3,1.6c-0.2,0.6-0.2,1.3,0,1.9c0.3,0.6,0.8,1.1,1.4,1.3c0.3,0.1,0.6,0.2,0.9,0.2
							C579.2,559,580.1,558.3,580.5,557.4z"/>
						<path class="st0" d="M576.3,675.5c4.3,0,7.8,3.5,7.8,7.8c0,4.3-3.5,7.8-7.8,7.8c-4.3,0-7.8-3.5-7.8-7.8
							C568.5,679,572,675.5,576.3,675.5z M582.3,683.3c0-3.3-2.7-6.1-6-6.1c-3.3,0-6.1,2.7-6.1,6.1c0,3.3,2.7,6,6.1,6
							C579.6,689.3,582.3,686.6,582.3,683.3z"/>
						<path class="st1" d="M576.3,677.2c3.3,0,6,2.7,6,6.1c0,3.3-2.7,6-6,6c-3.3,0-6.1-2.7-6.1-6
							C570.2,679.9,572.9,677.2,576.3,677.2z"/>
						<path class="st0" d="M572.6,289.2c1.2,0,2.3,1,2.3,2.2c0,1.2-1,2.3-2.3,2.3c-1.2,0-2.2-1-2.2-2.3
							C570.4,290.2,571.4,289.2,572.6,289.2z"/>
						<path class="st0" d="M549.5,682.3c1.7,0,3.1,1.4,3.1,3.1s-1.4,3.1-3.1,3.1h-20.4c-1.7,0-3.1-1.4-3.1-3.1s1.4-3.1,3.1-3.1
							H549.5z M550.8,685.4c0-0.7-0.5-1.2-1.2-1.2h-20.4c-0.7,0-1.2,0.5-1.2,1.2c0,0.7,0.5,1.2,1.2,1.2h20.4
							C550.2,686.6,550.8,686.1,550.8,685.4z"/>
						<path class="st0" d="M548,529.6c0.6,1.5,0.7,3.1,0.1,4.5c-0.9,2.3-3.1,3.8-5.5,3.8c-0.8,0-1.5-0.1-2.2-0.4
							c-1.5-0.6-2.6-1.7-3.3-3.2c-0.6-1.5-0.7-3.1-0.1-4.6c0.9-2.3,3.1-3.8,5.5-3.8c0.8,0,1.5,0.1,2.2,0.4
							C546.2,527,547.4,528.1,548,529.6z M546.4,533.4c0.4-1,0.4-2.1,0-3.1s-1.2-1.8-2.2-2.2c-0.5-0.2-1-0.3-1.5-0.3
							c-1.7,0-3.2,1-3.8,2.6c-0.4,1-0.4,2.1,0,3.1s1.2,1.8,2.2,2.2c0.5,0.2,1,0.3,1.5,0.3C544.3,536,545.8,535,546.4,533.4z"/>
						<path class="st0" d="M533,446.9c0,7.3-6,13.3-13.3,13.3c-7.3,0-13.3-6-13.3-13.3c0-4.7,2.4-9,6.4-11.4v-60.2
							c0-3.7,3-6.7,6.7-6.7c3.7,0,6.7,3,6.7,6.7v59.9C530.3,437.6,533,442,533,446.9z M531.1,446.9c0-4.4-2.4-8.3-6.4-10.3l-0.5-0.2
							v-61.1c0-2.6-2.2-4.8-4.8-4.8c-2.7,0-4.8,2.1-4.8,4.8v61.3l-0.5,0.3c-3.7,2-5.9,5.9-5.9,10c0,6.3,5.1,11.4,11.5,11.4
							S531.1,453.2,531.1,446.9z"/>
						<path class="st0" d="M525.6,447.6c0,3.7-3,6.6-6.6,6.6c-3.7,0-6.6-3-6.6-6.6c0-2.6,1.6-5,4-6.1v-4.9v-37.4c0-1.6,1.3-3,3-3
							c1.6,0,3,1.3,3,3v37.2v5.4C524.3,443,525.6,445.2,525.6,447.6z M523.7,447.6c0-1.9-1.1-3.6-2.8-4.3l-0.5-0.2v-43.8
							c0-0.6-0.5-1.1-1.1-1.1c-0.6,0-1.1,0.5-1.1,1.1v43.7l-0.6,0.2c-2,0.6-3.3,2.5-3.3,4.5c0,2.6,2.2,4.8,4.8,4.8
							C521.5,452.4,523.7,450.2,523.7,447.6z"/>
						<path class="st0" d="M512.6,675.5c4.9,0,8.8,4,8.8,8.8s-4,8.9-8.8,8.9s-8.9-4-8.9-8.9S507.8,675.5,512.6,675.5z M519.8,684.4
							c0-3.9-3.2-7.1-7.1-7.1c-3.9,0-7.1,3.2-7.1,7.1c0,3.9,3.2,7.1,7.1,7.1C516.6,691.5,519.8,688.3,519.8,684.4z"/>
						<rect x="501.7" y="430.8" class="st0" width="5.5" height="1.9"/>
						<rect x="501.7" y="416" class="st0" width="5.5" height="1.9"/>
						<rect x="501.7" y="401.3" class="st0" width="5.5" height="1.9"/>
						<rect x="501.7" y="386.6" class="st0" width="5.5" height="1.9"/>
						<rect x="501.7" y="371.8" class="st0" width="5.5" height="1.9"/>
						<rect x="501.7" y="425.9" class="st0" width="2.8" height="1.9"/>
						<rect x="501.7" y="421" class="st0" width="2.8" height="1.9"/>
						<rect x="501.7" y="411.1" class="st0" width="2.8" height="1.9"/>
						<rect x="501.7" y="406.2" class="st0" width="2.8" height="1.9"/>
						<rect x="501.7" y="396.4" class="st0" width="2.8" height="1.9"/>
						<rect x="501.7" y="391.5" class="st0" width="2.8" height="1.9"/>
						<rect x="501.7" y="381.6" class="st0" width="2.8" height="1.9"/>
						<rect x="501.7" y="376.7" class="st0" width="2.8" height="1.9"/>
						<path class="st0" d="M490.1,682.3c1.7,0,3.1,1.4,3.1,3.1s-1.4,3.1-3.1,3.1h-20.4c-1.7,0-3.1-1.4-3.1-3.1s1.4-3.1,3.1-3.1
							H490.1z M491.3,685.4c0-0.7-0.5-1.2-1.2-1.2h-20.4c-0.7,0-1.2,0.5-1.2,1.2c0,0.7,0.5,1.2,1.2,1.2h20.4
							C490.8,686.6,491.3,686.1,491.3,685.4z"/>
						<path class="st1" d="M476.1,422.2c0,0.3,0,0.5,0,0.8c0,4.9-4,8.9-8.9,8.9c-4.6,0-8.4-3.5-8.9-8c0-0.3,0-0.6,0-0.9
							c0-0.3,0-0.5,0-0.8c0-0.1,0-0.2,0-0.2c0-0.2,0.1-0.4,0.1-0.6c0-0.1,0-0.2,0-0.2c0-0.2,0.1-0.5,0.2-0.7c0-0.1,0-0.1,0-0.2
							c0.1-0.2,0.1-0.4,0.2-0.6c0-0.1,0.1-0.2,0.1-0.2c0.1-0.2,0.2-0.4,0.3-0.6c0,0,0-0.1,0.1-0.1c0.1-0.2,0.3-0.5,0.4-0.7
							c0,0,0,0,0,0c0.1-0.2,0.3-0.4,0.4-0.6c0,0,0.1-0.1,0.1-0.1c0.4-0.4,0.8-0.8,1.2-1.2c0,0,0,0,0,0c0.2-0.1,0.4-0.3,0.6-0.4
							c0,0,0.1-0.1,0.2-0.1c0.2-0.1,0.4-0.2,0.5-0.3c0.1,0,0.1-0.1,0.2-0.1c0.2-0.1,0.5-0.2,0.7-0.4l0,0c1.1-0.4,2.2-0.7,3.5-0.7
							c0.9,0,1.7,0.1,2.4,0.4c0.2,0.1,0.4,0.1,0.6,0.2c0.1,0,0.1,0,0.2,0.1c0.2,0.1,0.4,0.1,0.5,0.2c0.1,0,0.1,0.1,0.2,0.1
							c0.2,0.1,0.4,0.2,0.5,0.3c0,0,0.1,0,0.1,0.1c0.6,0.4,1.1,0.8,1.6,1.2l0,0c0.2,0.1,0.3,0.3,0.4,0.5c0,0,0.1,0.1,0.1,0.1
							c0.1,0.1,0.3,0.3,0.4,0.5c0,0,0,0.1,0.1,0.1c0.1,0.2,0.2,0.3,0.4,0.5c0,0,0,0,0,0c0.4,0.5,0.6,1.1,0.9,1.8
							c0,0.1,0.1,0.1,0.1,0.2c0,0.2,0.1,0.3,0.1,0.5c0,0.1,0.1,0.2,0.1,0.3c0,0.1,0.1,0.3,0.1,0.4c0,0.1,0,0.3,0.1,0.5
							C476.1,422,476.1,422.1,476.1,422.2z"/>
						<path class="st0" d="M441.2,664.2c10.5,0,19.1,8.6,19.1,19.1c0,10.5-8.6,19.1-19.1,19.1c-10.5,0-19.1-8.6-19.1-19.1
							C422.1,672.7,430.7,664.2,441.2,664.2z M458.6,683.3c0-9.6-7.8-17.4-17.4-17.4c-9.6,0-17.4,7.8-17.4,17.4
							c0,9.6,7.8,17.4,17.4,17.4C450.8,700.6,458.6,692.8,458.6,683.3z"/>
						<path class="st0" d="M441.2,675.5c4.3,0,7.8,3.5,7.8,7.8c0,4.3-3.5,7.8-7.8,7.8s-7.8-3.5-7.8-7.8
							C433.5,679,436.9,675.5,441.2,675.5z M447.3,683.3c0-3.3-2.7-6.1-6.1-6.1c-3.3,0-6,2.7-6,6.1c0,3.3,2.7,6,6,6
							C444.5,689.3,447.3,686.6,447.3,683.3z"/>
						<path class="st1" d="M441.2,677.2c3.3,0,6.1,2.7,6.1,6.1c0,3.3-2.7,6-6.1,6c-3.3,0-6-2.7-6-6
							C435.2,679.9,437.9,677.2,441.2,677.2z"/>
						<path class="st0" d="M444.4,327v67.5c0,6-4.9,10.8-10.8,10.8H321.3c-6,0-10.8-4.9-10.8-10.8V327c0-6,4.8-10.8,10.8-10.8h112.2
							C439.5,316.1,444.4,321,444.4,327z M442.5,394.4V327c0-5-4-9-9-9H321.3c-4.9,0-9,4-9,9v67.5c0,4.9,4,9,9,9h112.2
							C438.5,403.4,442.5,399.4,442.5,394.4z"/>
						<path class="st0" d="M432.2,335.5v50c0,2.6-2.1,4.7-4.7,4.7h-25.1c-2.6,0-4.6-2.1-4.6-4.7v-50c0-2.6,2.1-4.7,4.6-4.7h25.1
							C430.1,330.8,432.2,332.9,432.2,335.5z M430.3,385.5v-50c0-1.5-1.2-2.8-2.8-2.8h-25.1c-1.5,0-2.8,1.3-2.8,2.8v50
							c0,1.5,1.2,2.8,2.8,2.8h25.1C429,388.3,430.3,387,430.3,385.5z"/>
						<path class="st0" d="M421.5,544c0,2.6-2.1,4.6-4.6,4.6s-4.6-2.1-4.6-4.6c0-2.6,2.1-4.6,4.6-4.6S421.5,541.5,421.5,544z
							 M419.7,544c0-1.5-1.2-2.8-2.8-2.8s-2.8,1.2-2.8,2.8c0,1.5,1.2,2.8,2.8,2.8S419.7,545.6,419.7,544z"/>
						<path class="st0" d="M412.3,682.3c1.7,0,3.1,1.4,3.1,3.1s-1.4,3.1-3.1,3.1h-20.4c-1.7,0-3.1-1.4-3.1-3.1s1.4-3.1,3.1-3.1
							H412.3z M413.5,685.4c0-0.7-0.5-1.2-1.2-1.2h-20.4c-0.7,0-1.2,0.5-1.2,1.2c0,0.7,0.5,1.2,1.2,1.2h20.4
							C412.9,686.6,413.5,686.1,413.5,685.4z"/>
						<path class="st0" d="M408.2,497.7v11.7c0,3.4-2.7,6.1-6.1,6.1h-21.9c-0.8,1.3-2.2,2.1-3.8,2.1h-5.8c-1.5,0-3-0.8-3.8-2.1
							h-26.2c-3.4,0-6.1-2.7-6.1-6.1v-11.7c0-3.4,2.8-6.1,6.1-6.1H402C405.4,491.5,408.2,494.3,408.2,497.7z M406.3,509.4v-11.7
							c0-2.4-1.9-4.3-4.3-4.3h-3.3h-58.2c-2.3,0-4.2,1.9-4.2,4.3v11.7c0,2.4,1.9,4.3,4.2,4.3h27.4l0.2,0.5c0.4,0.9,1.4,1.6,2.4,1.6
							h5.8c1,0,2-0.6,2.4-1.6l0.2-0.5h19.8h3.3C404.4,513.6,406.3,511.7,406.3,509.4z"/>
						<path class="st0" d="M406.7,544c0,2.6-2.1,4.6-4.6,4.6c-2.6,0-4.6-2.1-4.6-4.6c0-2.6,2.1-4.6,4.6-4.6
							C404.6,539.4,406.7,541.5,406.7,544z M404.9,544c0-1.5-1.2-2.8-2.8-2.8c-1.5,0-2.8,1.2-2.8,2.8c0,1.5,1.2,2.8,2.8,2.8
							C403.6,546.8,404.9,545.6,404.9,544z"/>
						<path class="st0" d="M402.1,498.3v10.4c0,1.8-1.5,3.3-3.3,3.3h-20.6l-0.2-0.6c-0.3-0.9-1.1-1.6-2.1-1.6h-5.2
							c-1,0-1.8,0.6-2.1,1.6l-0.2,0.6h-24.5c-1.8,0-3.3-1.5-3.3-3.3v-10.4c0-1.8,1.5-3.3,3.3-3.3h55
							C400.6,495,402.1,496.5,402.1,498.3z M400.2,508.7v-10.4c0-0.8-0.7-1.5-1.5-1.5h-55c-0.8,0-1.5,0.7-1.5,1.5v10.4
							c0,0.8,0.7,1.5,1.5,1.5H367c0.7-1.4,2.1-2.2,3.6-2.2h5.2c1.5,0,2.9,0.9,3.6,2.2h19.3C399.6,510.2,400.2,509.5,400.2,508.7z"/>
						<path class="st0" d="M391.9,544c0,2.6-2.1,4.6-4.6,4.6s-4.6-2.1-4.6-4.6c0-2.6,2.1-4.6,4.6-4.6S391.9,541.5,391.9,544z
							 M390,544c0-1.5-1.2-2.8-2.8-2.8s-2.8,1.2-2.8,2.8c0,1.5,1.2,2.8,2.8,2.8S390,545.6,390,544z"/>
						<path class="st1" d="M387.2,541.3c1.5,0,2.8,1.2,2.8,2.8c0,1.5-1.2,2.8-2.8,2.8s-2.8-1.2-2.8-2.8
							C384.5,542.5,385.7,541.3,387.2,541.3z"/>
						<path class="st0" d="M384.1,339.6c0,0.3,0.1,0.7,0.1,1c0,0.3,0,0.7-0.1,1c0,0.1,0,0.2,0,0.3c0,0.3-0.1,0.5-0.1,0.8
							c0,0.1,0,0.1,0,0.2c-0.7,3.5-3.1,6.4-6.4,7.8c-0.1,0-0.1,0-0.2,0.1c-0.1,0-0.2,0.1-0.2,0.1v43.2c0,2.2-1.8,3.9-3.9,3.9
							s-3.9-1.8-3.9-3.9v-43.2c-0.1,0-0.2-0.1-0.2-0.1c-0.1,0-0.1,0-0.2-0.1c-3.3-1.4-5.6-4.3-6.4-7.8c0-0.1,0-0.1,0-0.2
							c-0.1-0.3-0.1-0.5-0.1-0.8c0-0.1,0-0.2,0-0.3c0-0.3,0-0.7,0-1c0-0.3,0-0.7,0-1c0-0.1,0-0.2,0-0.3c0-0.3,0.1-0.5,0.1-0.8
							c0-0.1,0-0.1,0-0.2c0.7-3.5,3.1-6.3,6.4-7.8c0,0,0.1-0.1,0.2-0.1c0.1,0,0.2-0.1,0.2-0.1v-0.2c0-2.2,1.8-3.9,3.9-3.9
							s3.9,1.8,3.9,3.9v0.2c0.1,0,0.2,0.1,0.3,0.1c0,0,0.1,0,0.2,0.1c3.3,1.4,5.6,4.3,6.4,7.8c0,0.1,0,0.1,0,0.2
							c0.1,0.3,0.1,0.5,0.1,0.8C384.1,339.5,384.1,339.6,384.1,339.6z M382.3,340.7c0-0.3,0-0.6,0-0.9c0-0.1,0-0.1,0-0.2
							c0-0.2-0.1-0.4-0.1-0.6c0-0.1,0-0.1,0-0.2c-0.1-0.3-0.1-0.5-0.2-0.8c0,0,0,0,0,0c-0.7-2.3-2.3-4.2-4.3-5.3c0,0,0,0,0,0
							c-0.2-0.1-0.5-0.3-0.8-0.4c0,0,0,0-0.1,0c-1.1-0.5-2.3-0.7-3.5-0.7c-1.2,0-2.4,0.2-3.5,0.7c0,0,0,0-0.1,0
							c-0.3,0.1-0.5,0.2-0.8,0.4h0c-2,1.1-3.6,3-4.3,5.3c0,0,0,0,0,0c-0.1,0.2-0.1,0.5-0.2,0.8c0,0.1,0,0.1,0,0.2
							c0,0.2-0.1,0.4-0.1,0.6c0,0.1,0,0.1,0,0.2c0,0.3-0.1,0.6-0.1,0.9c0,0.3,0,0.6,0.1,0.8c0,0.1,0,0.2,0,0.2
							c0,0.2,0.1,0.4,0.1,0.6c0,0.1,0,0.1,0,0.2c0.1,0.2,0.1,0.5,0.2,0.8c0,0,0,0,0,0c0.7,2.3,2.3,4.1,4.3,5.3c0,0,0,0,0,0
							c0.2,0.1,0.5,0.2,0.7,0.4c0,0,0.1,0,0.1,0c1.1,0.4,2.3,0.7,3.5,0.7c0.3,0,0.6,0,0.9,0c-1.1-0.6-1.8-1.8-1.8-3.2
							c0-2,1.6-3.6,3.6-3.6c2,0,3.6,1.6,3.6,3.6c0,0.2,0,0.5-0.1,0.7c1.1-1.1,1.9-2.4,2.4-3.9c0,0,0,0,0,0c0.1-0.2,0.1-0.5,0.2-0.8
							c0-0.1,0-0.1,0-0.2c0-0.2,0.1-0.4,0.1-0.6c0-0.1,0-0.1,0-0.2C382.3,341.2,382.3,341,382.3,340.7z M377.7,346.5
							c0-1-0.8-1.8-1.8-1.8c-1,0-1.8,0.8-1.8,1.8c0,1,0.8,1.8,1.8,1.8C376.9,348.3,377.7,347.5,377.7,346.5z M375.3,394.1v-42.7
							c-0.7,0.1-1.4,0.2-2.1,0.2c-0.7,0-1.4-0.1-2.1-0.2v42.7c0,1.1,0.9,2.1,2.1,2.1C374.4,396.1,375.3,395.2,375.3,394.1z
							 M373.3,329.7c0.7,0,1.4,0.1,2,0.2c-0.2-1-1-1.7-2-1.7s-1.9,0.8-2,1.7C371.9,329.8,372.6,329.7,373.3,329.7z"/>
						<path class="st0" d="M373.3,675.5c4.9,0,8.8,4,8.8,8.8s-4,8.9-8.8,8.9s-8.9-4-8.9-8.9S368.4,675.5,373.3,675.5z M380.4,684.4
							c0-3.9-3.2-7.1-7.1-7.1s-7.1,3.2-7.1,7.1c0,3.9,3.2,7.1,7.1,7.1S380.4,688.3,380.4,684.4z"/>
						<path class="st0" d="M375,544c0,2.6-2.1,4.6-4.6,4.6c-2.6,0-4.6-2.1-4.6-4.6c0-2.6,2.1-4.6,4.6-4.6
							C372.9,539.4,375,541.5,375,544z M373.2,544c0-1.5-1.2-2.8-2.8-2.8s-2.8,1.2-2.8,2.8c0,1.5,1.2,2.8,2.8,2.8
							S373.2,545.6,373.2,544z"/>
						<path class="st0" d="M360.8,376.5c0,0.3,0.1,0.7,0.1,1c0,0.3,0,0.7-0.1,1c0,0.1,0,0.2,0,0.3c0,0.3-0.1,0.5-0.1,0.8
							c0,0.1,0,0.1,0,0.2c-0.7,3.5-3.1,6.4-6.3,7.8c-0.1,0-0.1,0-0.2,0.1c-0.1,0-0.2,0.1-0.2,0.1v6.4c0,2.2-1.8,3.9-3.9,3.9
							s-3.9-1.8-3.9-3.9v-6.4c-0.1,0-0.2-0.1-0.2-0.1c-0.1,0-0.1,0-0.2-0.1c-3.3-1.4-5.6-4.3-6.4-7.8c0-0.1,0-0.1,0-0.2
							c0-0.3-0.1-0.5-0.1-0.8c0-0.1,0-0.2,0-0.3c0-0.3,0-0.7,0-1c0-0.4,0-0.7,0-1c0-0.1,0-0.2,0-0.3c0-0.3,0.1-0.5,0.1-0.8
							c0-0.1,0-0.1,0-0.2c0.7-3.5,3.1-6.3,6.4-7.8c0.1,0,0.1,0,0.2-0.1c0.1,0,0.2-0.1,0.2-0.1v-37c0-2.2,1.8-3.9,3.9-3.9
							s3.9,1.8,3.9,3.9v37c0.1,0,0.2,0.1,0.2,0.1c0.1,0,0.1,0.1,0.2,0.1c3.3,1.4,5.6,4.3,6.3,7.8c0,0.1,0,0.1,0,0.2
							c0.1,0.3,0.1,0.5,0.1,0.8C360.8,376.3,360.8,376.4,360.8,376.5z M359,377.5c0-0.3,0-0.6,0-0.9c0-0.1,0-0.1,0-0.2
							c0-0.2-0.1-0.4-0.1-0.6c0-0.1,0-0.1,0-0.2c-0.1-0.3-0.1-0.5-0.2-0.8c0,0,0,0,0,0c-0.4-1.2-1-2.3-1.8-3.2
							c-0.1,2.1-1.8,3.7-3.9,3.7c-2.2,0-3.9-1.8-3.9-3.9c0-1.2,0.5-2.2,1.3-2.9c-0.1,0-0.3,0-0.4,0c-1.2,0-2.4,0.2-3.5,0.7
							c0,0,0,0-0.1,0c-0.2,0.1-0.5,0.2-0.7,0.3c0,0,0,0,0,0c-2.1,1.1-3.6,3-4.3,5.3c0,0,0,0,0,0c-0.1,0.2-0.1,0.5-0.2,0.8
							c0,0.1,0,0.1,0,0.2c0,0.2-0.1,0.4-0.1,0.6c0,0.1,0,0.1,0,0.2c0,0.3-0.1,0.6-0.1,0.9c0,0.3,0,0.6,0.1,0.8c0,0.1,0,0.2,0,0.2
							c0,0.2,0.1,0.4,0.1,0.6c0,0.1,0,0.1,0,0.2c0.1,0.2,0.1,0.5,0.2,0.8c0,0,0,0,0,0c0.7,2.3,2.3,4.1,4.3,5.3c0,0,0,0,0,0
							c0.2,0.1,0.5,0.2,0.7,0.4c0,0,0.1,0,0.1,0c1.1,0.4,2.3,0.7,3.5,0.7s2.4-0.2,3.5-0.7c0,0,0,0,0.1,0c0.2-0.1,0.5-0.2,0.7-0.4
							c0,0,0,0,0,0c2-1.1,3.6-3,4.3-5.3c0,0,0,0,0,0c0.1-0.2,0.1-0.5,0.2-0.8c0-0.1,0-0.1,0-0.2c0-0.2,0.1-0.4,0.1-0.6
							c0-0.1,0-0.1,0-0.2C358.9,378,359,377.8,359,377.5z M354.9,371.4c0-1.1-0.9-2.1-2.1-2.1c-1.1,0-2.1,0.9-2.1,2.1
							c0,1.1,0.9,2.1,2.1,2.1C354,373.4,354.9,372.5,354.9,371.4z M351.9,394.1v-5.9c-0.7,0.1-1.4,0.2-2.1,0.2s-1.4-0.1-2.1-0.2v5.9
							c0,1.1,0.9,2.1,2.1,2.1C351,396.1,351.9,395.2,351.9,394.1z M351.9,366.7v-36.5c0-1.1-0.9-2.1-2.1-2.1c-1.1,0-2.1,0.9-2.1,2.1
							v36.5c0.7-0.1,1.4-0.2,2.1-0.2S351.3,366.6,351.9,366.7z"/>
						<path class="st0" d="M355.5,682.3c1.7,0,3.1,1.4,3.1,3.1s-1.4,3.1-3.1,3.1h-20.4c-1.7,0-3.1-1.4-3.1-3.1s1.4-3.1,3.1-3.1
							H355.5z M356.7,685.4c0-0.7-0.5-1.2-1.2-1.2h-20.4c-0.7,0-1.2,0.5-1.2,1.2c0,0.7,0.5,1.2,1.2,1.2h20.4
							C356.2,686.6,356.7,686.1,356.7,685.4z"/>
						<path class="st0" d="M338.6,349.7c0,0.3,0.1,0.6,0.1,1c0,0.3,0,0.7-0.1,1c0,0.1,0,0.2,0,0.4c0,0.2,0,0.4-0.1,0.6
							c0,0.2-0.1,0.3-0.1,0.5c0,0.1-0.1,0.2-0.1,0.3c-0.5,2.1-1.7,3.9-3.2,5.3c0,0-0.1,0.1-0.1,0.1c-0.2,0.1-0.3,0.3-0.5,0.4
							c-0.1,0-0.1,0.1-0.2,0.1c-0.5,0.4-1.1,0.8-1.7,1c-0.1,0.1-0.3,0.1-0.4,0.2c-0.2,0.1-0.3,0.1-0.5,0.2c-0.1,0-0.1,0.1-0.2,0.1
							v33.3c0,2.1-1.7,3.7-3.7,3.7c-2.1,0-3.7-1.7-3.7-3.7V361c-0.1,0-0.1,0-0.2-0.1c-0.2-0.1-0.4-0.1-0.5-0.2
							c-0.1-0.1-0.2-0.1-0.3-0.1c-0.4-0.2-0.7-0.4-1.1-0.6c-0.1,0-0.1-0.1-0.2-0.1c-0.2-0.1-0.3-0.2-0.5-0.4
							c-0.1-0.1-0.1-0.1-0.2-0.2c-0.2-0.1-0.3-0.3-0.5-0.4c-0.1-0.1-0.1-0.1-0.2-0.2c-0.8-0.7-1.4-1.5-2-2.4c0,0,0-0.1-0.1-0.1
							c-0.1-0.2-0.2-0.4-0.4-0.7c0,0,0-0.1,0-0.1c-0.3-0.6-0.6-1.3-0.7-2c0-0.1-0.1-0.3-0.1-0.4c0-0.1-0.1-0.3-0.1-0.5
							c0-0.2-0.1-0.4-0.1-0.6c0-0.1,0-0.2-0.1-0.4c0-0.3,0-0.7,0-1c0-0.3,0-0.7,0-1c0-0.1,0-0.2,0.1-0.4c0-0.2,0-0.4,0.1-0.6
							c0-0.2,0.1-0.3,0.1-0.5c0-0.1,0.1-0.3,0.1-0.4c0.2-0.7,0.4-1.3,0.7-2c0,0,0-0.1,0-0.1c0.1-0.2,0.2-0.4,0.4-0.6
							c0,0,0-0.1,0.1-0.1c0.5-0.9,1.2-1.7,2-2.4c0.1-0.1,0.1-0.1,0.2-0.2c0.2-0.1,0.3-0.3,0.5-0.4c0.1-0.1,0.1-0.1,0.2-0.2
							c0.2-0.1,0.3-0.2,0.5-0.4c0.1,0,0.1-0.1,0.2-0.1c0.4-0.2,0.7-0.4,1.1-0.6c0.1,0,0.2-0.1,0.3-0.1c0.2-0.1,0.4-0.2,0.5-0.2
							c0.1,0,0.1,0,0.2-0.1V330c0-2,1.7-3.7,3.7-3.7c2.1,0,3.7,1.7,3.7,3.7v10.4c0.1,0,0.1,0.1,0.2,0.1c0.2,0.1,0.3,0.1,0.5,0.2
							c0.1,0.1,0.3,0.1,0.4,0.2c0.6,0.3,1.2,0.6,1.7,1c0.1,0,0.1,0.1,0.2,0.1c0.2,0.1,0.3,0.3,0.5,0.4c0,0,0.1,0.1,0.1,0.1
							c1.5,1.4,2.7,3.2,3.2,5.3c0,0.1,0.1,0.2,0.1,0.3c0,0.2,0.1,0.3,0.1,0.5c0,0.2,0.1,0.4,0.1,0.5
							C338.6,349.4,338.6,349.6,338.6,349.7z M336.8,350.7c0-0.3,0-0.6,0-0.8c0-0.1,0-0.2-0.1-0.3c0-0.1,0-0.3-0.1-0.4
							c0-0.1-0.1-0.3-0.1-0.5c0-0.1,0-0.2-0.1-0.3c-0.1-0.2-0.1-0.4-0.2-0.5c0,0,0,0,0,0c-0.6-1.8-1.8-3.4-3.3-4.5c0,0,0,0-0.1,0
							c-0.2-0.1-0.3-0.2-0.5-0.3c-0.1,0-0.2-0.1-0.2-0.1c-0.1-0.1-0.3-0.1-0.4-0.2c-0.1,0-0.2-0.1-0.3-0.1c-0.1-0.1-0.3-0.1-0.4-0.2
							c-0.1,0-0.2-0.1-0.3-0.1c-0.2-0.1-0.3-0.1-0.5-0.2c-0.8-0.2-1.7-0.4-2.6-0.4c-0.9,0-1.7,0.1-2.5,0.4c-0.2,0.1-0.4,0.1-0.6,0.2
							c-0.1,0-0.1,0.1-0.2,0.1c-0.2,0.1-0.4,0.1-0.5,0.2c-0.1,0-0.1,0.1-0.2,0.1c-0.2,0.1-0.3,0.2-0.5,0.3c-0.1,0-0.1,0.1-0.2,0.1
							c-0.8,0.5-1.5,1-2.1,1.7c0,0,0,0.1-0.1,0.1c-0.1,0.2-0.3,0.3-0.4,0.5c0,0,0,0,0,0.1c-0.5,0.7-1,1.5-1.3,2.4c0,0,0,0.1-0.1,0.1
							c-0.1,0.2-0.1,0.3-0.1,0.5c0,0.1,0,0.2-0.1,0.3c0,0.1-0.1,0.3-0.1,0.4c0,0.1,0,0.3-0.1,0.5c0,0.1,0,0.2,0,0.3
							c0,0.3,0,0.6,0,0.8c0,0.3,0,0.6,0,0.8c0,0.1,0,0.2,0,0.3c0,0.1,0,0.3,0.1,0.5c0,0.1,0.1,0.3,0.1,0.4c0,0.1,0,0.2,0.1,0.3
							c0,0.2,0.1,0.3,0.1,0.5c0,0,0,0.1,0.1,0.1c0.3,0.9,0.7,1.7,1.3,2.4c0,0,0,0,0,0.1c0.1,0.2,0.3,0.4,0.4,0.5c0,0,0,0,0,0
							c0.6,0.7,1.3,1.3,2.1,1.7c0,0,0.1,0.1,0.2,0.1c0.2,0.1,0.3,0.2,0.5,0.3c0.1,0,0.1,0.1,0.2,0.1c0.2,0.1,0.3,0.1,0.5,0.2
							c0.1,0,0.1,0,0.2,0.1c0.2,0.1,0.4,0.1,0.6,0.2c0.8,0.2,1.6,0.4,2.5,0.4c0.7,0,1.4-0.1,2.1-0.3c-1.2-0.6-2-1.8-2-3.2
							c0-2,1.6-3.7,3.7-3.7c1.9,0,3.4,1.4,3.6,3.2c0.5-0.7,0.8-1.4,1.1-2.2v0c0.1-0.2,0.1-0.4,0.2-0.5c0-0.1,0-0.2,0.1-0.3
							c0-0.1,0.1-0.3,0.1-0.4c0-0.1,0-0.3,0.1-0.4c0-0.1,0-0.2,0.1-0.3C336.8,351.2,336.8,351,336.8,350.7z M333.4,356.2
							c0-1-0.8-1.8-1.8-1.8c-1,0-1.8,0.8-1.8,1.8c0,1,0.8,1.8,1.8,1.8C332.6,358.1,333.4,357.2,333.4,356.2z M329.6,394.3v-32.8
							c-0.6,0.1-1.3,0.2-1.9,0.2c-0.6,0-1.2-0.1-1.8-0.2v32.8c0,1,0.8,1.9,1.9,1.9S329.6,395.3,329.6,394.3z M329.6,339.9V330
							c0-1-0.8-1.9-1.9-1.9s-1.9,0.8-1.9,1.9v9.9c0.6-0.1,1.2-0.2,1.8-0.2C328.4,339.7,329,339.8,329.6,339.9z"/>
						<path class="st1" d="M322.5,516.6c0.1,2.8,0.1,11.2,0,14c-3.5-0.4-6.2-3.4-6.2-7C316.4,520,319,517.1,322.5,516.6z"/>
						<path class="st0" d="M306.2,664.2c10.5,0,19.1,8.6,19.1,19.1c0,10.5-8.6,19.1-19.1,19.1c-10.5,0-19.1-8.6-19.1-19.1
							C287.1,672.7,295.6,664.2,306.2,664.2z M323.5,683.3c0-9.6-7.8-17.4-17.4-17.4c-9.6,0-17.4,7.8-17.4,17.4
							c0,9.6,7.8,17.4,17.4,17.4C315.7,700.6,323.5,692.8,323.5,683.3z"/>
						<path class="st0" d="M306.2,675.5c4.3,0,7.8,3.5,7.8,7.8c0,4.3-3.5,7.8-7.8,7.8s-7.8-3.5-7.8-7.8
							C298.4,679,301.9,675.5,306.2,675.5z M312.2,683.3c0-3.3-2.7-6.1-6-6.1c-3.3,0-6.1,2.7-6.1,6.1c0,3.3,2.7,6,6.1,6
							C309.5,689.3,312.2,686.6,312.2,683.3z"/>
						<path class="st1" d="M306.2,677.2c3.3,0,6,2.7,6,6.1c0,3.3-2.7,6-6,6c-3.3,0-6.1-2.7-6.1-6
							C300.1,679.9,302.8,677.2,306.2,677.2z"/>
						<path class="st0" d="M274.3,682.3c1.7,0,3.1,1.4,3.1,3.1s-1.4,3.1-3.1,3.1h-20.4c-1.7,0-3.1-1.4-3.1-3.1s1.4-3.1,3.1-3.1
							H274.3z M275.5,685.4c0-0.7-0.5-1.2-1.2-1.2h-20.4c-0.7,0-1.2,0.5-1.2,1.2c0,0.7,0.5,1.2,1.2,1.2h20.4
							C275,686.6,275.5,686.1,275.5,685.4z"/>
						<path class="st0" d="M234.4,350.9c5.1,0,9.3,4.2,9.3,9.3c0,5.1-4.1,9.3-9.3,9.3s-9.3-4.1-9.3-9.3
							C225.1,355,229.3,350.9,234.4,350.9z M241.8,360.1c0-4.1-3.3-7.4-7.4-7.4s-7.4,3.3-7.4,7.4c0,4.1,3.3,7.4,7.4,7.4
							S241.8,364.2,241.8,360.1z"/>
						<path class="st0" d="M233.9,675.5c4.9,0,8.9,4,8.9,8.8s-4,8.9-8.9,8.9s-8.9-4-8.9-8.9S229,675.5,233.9,675.5z M241,684.4
							c0-3.9-3.2-7.1-7.1-7.1c-3.9,0-7.1,3.2-7.1,7.1c0,3.9,3.2,7.1,7.1,7.1C237.8,691.5,241,688.3,241,684.4z"/>
						<circle class="st1" cx="234.4" cy="360.1" r="7.4"/>
						<path class="st0" d="M218.1,682.3c1.7,0,3.1,1.4,3.1,3.1s-1.4,3.1-3.1,3.1h-20.4c-1.7,0-3.1-1.4-3.1-3.1s1.4-3.1,3.1-3.1
							H218.1z M219.3,685.4c0-0.7-0.5-1.2-1.2-1.2h-20.4c-0.7,0-1.2,0.5-1.2,1.2c0,0.7,0.5,1.2,1.2,1.2h20.4
							C218.8,686.6,219.3,686.1,219.3,685.4z"/>
						<path class="st0" d="M211.1,278.3v5.8c0,3.5-2.9,6.4-6.4,6.4c-3.5,0-6.4-2.9-6.4-6.4v-5.8c0-0.2,0-0.3,0.1-0.5l-9.9-10.6
							l-9.9,10.6c0,0.2,0.1,0.3,0.1,0.5v5.8c0,3.5-2.9,6.4-6.4,6.4c-3.5,0-6.4-2.9-6.4-6.4v-5.8c0-1.2,0.4-2.3,1.1-3.4
							c0.2-0.8,0.6-1.6,1.2-2.2l14.7-15.6v-6.9h-4.5V244h20v6.2h-4.3v6.9l14.7,15.6c0.6,0.7,0.9,1.4,1.2,2.2
							C210.7,276,211.1,277.2,211.1,278.3z M209.4,284.2v-4.9c-0.3,0.5-0.6,1-1,1.3c-1,0.9-2.4,1.4-3.7,1.4c-1.6,0-3.1-0.7-4.1-1.9
							l-0.4-0.5l0,4.5c0,2.6,2.1,4.7,4.6,4.7C207.3,288.8,209.4,286.7,209.4,284.2z M207.2,279.3c1.1-1,1.4-2.5,1.1-3.8l0,0
							c-0.2-0.7-0.4-1.2-0.8-1.6c0,0,0,0,0,0l-13.7-14.5v0.5c0,0.9-0.3,1.7-0.7,2.5c-0.1,0.1-0.2,0.2-0.2,0.4
							c-0.4,0.7-1,1.3-1.7,1.7c0,0-0.1,0.1-0.1,0.1l-1.6,1.6l10.6,11.3v0l1.5,1.6C203.2,280.5,205.7,280.6,207.2,279.3z
							 M196.7,248.5v-2.8h-16.6v2.8h2.8h0.2h10.8h0.2H196.7z M192.2,259.8v-9.6h-7.4v9.6c0,1.3,0.7,2.5,1.9,3.2l0.2,0.2l0.2,0.1
							c0.4,0.2,0.8,0.3,1.3,0.3c0.7,0,1.3-0.2,1.8-0.5l0.1-0.1c0.6-0.3,1-0.8,1.3-1.3c0-0.1,0.1-0.1,0.1-0.2
							C192,261,192.2,260.4,192.2,259.8z M187.3,266.1l-1.2-1.3c-1.9-0.9-3.2-2.8-3.2-5v-0.3l-13.5,14.3c-0.4,0.4-0.6,0.9-0.8,1.6
							l0,0c-0.3,1.3,0,2.8,1.1,3.8c0.7,0.6,1.6,1,2.6,1c1.1,0,2.1-0.5,2.9-1.3l1.6-1.6v0L187.3,266.1z M176.9,284.2v-4.5l-0.5,0.5
							c-1,1.2-2.6,1.8-4.1,1.8c-1.4,0-2.7-0.5-3.7-1.4c-0.4-0.4-0.7-0.9-1-1.3v4.9c0,2.6,2.1,4.7,4.7,4.7
							C174.8,288.8,176.9,286.7,176.9,284.2z"/>
						<path class="st0" d="M206.3,275.4c0,1.2-1,2.3-2.3,2.3c-1.2,0-2.2-1-2.2-2.3c0-1.2,1-2.2,2.2-2.2
							C205.3,273.1,206.3,274.1,206.3,275.4z"/>
						<path class="st0" d="M198.4,236.9v6.2h-20v-6.2h3.5v-2.8h-3.5v-6.2h3.5V16.5c0.6,0.5,1.1,0.9,1.7,1.3v210.1h9.6V23.8
							c0.6,0.3,1.1,0.6,1.7,0.9v203.2h3.5v6.2h-3.5v2.8H198.4z M196.7,241.4v-2.8h-16.6v2.8H196.7z M196.7,232.4v-2.8h-16.6v2.8
							H196.7z M193.1,236.9v-2.8h-9.6v2.8H193.1z"/>
						<path class="st0" d="M188.3,256c1.2,0,2.3,1,2.3,2.3c0,1.2-1,2.2-2.3,2.2c-1.2,0-2.2-1-2.2-2.2C186,257,187,256,188.3,256z"/>
						<path class="st0" d="M171.1,675.5c4.3,0,7.8,3.5,7.8,7.8c0,4.3-3.5,7.8-7.8,7.8s-7.8-3.5-7.8-7.8
							C163.3,679,166.8,675.5,171.1,675.5z M177.1,683.3c0-3.3-2.7-6.1-6-6.1c-3.3,0-6,2.7-6,6.1c0,3.3,2.7,6,6,6
							C174.4,689.3,177.1,686.6,177.1,683.3z"/>
						<path class="st1" d="M171.1,677.2c3.3,0,6,2.7,6,6.1c0,3.3-2.7,6-6,6c-3.3,0-6-2.7-6-6C165.1,679.9,167.8,677.2,171.1,677.2z"
							/>
						<path class="st0" d="M172.9,273.1c1.2,0,2.3,1,2.3,2.2c0,1.2-1,2.3-2.3,2.3c-1.2,0-2.2-1-2.2-2.3
							C170.6,274.1,171.6,273.1,172.9,273.1z"/>
						<path class="st0" d="M118.2,494.8v39.9c0,2.6-2.1,4.7-4.7,4.7H61.3c-2.6,0-4.6-2.1-4.6-4.7v-39.9c0-2.6,2.1-4.6,4.6-4.6h52.3
							C116.1,490.2,118.2,492.3,118.2,494.8z M116.3,534.7v-16.5l-4.4-3.5l-6,9.6l-2.3-16.3L95.5,523l-7.2-6.3l-0.5,9.5l-6-16.5
							L73.6,522v-4.7l-4.8,6.1l-4.9-13.6l-5.4,9.3v15.6c0,1.5,1.2,2.8,2.8,2.8h52.3C115.1,537.5,116.3,536.3,116.3,534.7z
							 M116.3,515.8v-21c0-1.5-1.2-2.8-2.8-2.8H61.3c-1.5,0-2.8,1.2-2.8,2.8v20.6l5.8-10l5.1,14.2l6-7.8v3.9l6.8-10.2l4.1,11.3
							l0.2-4.1l8.4,7.3l9.7-18l2.4,16.8l4.4-7L116.3,515.8z"/>
						<path class="st0" d="M117.9,551.7c0,2.9-2.3,5.2-5.2,5.2s-5.2-2.3-5.2-5.2c0-2.9,2.3-5.2,5.2-5.2S117.9,548.8,117.9,551.7z
							 M116.1,551.7c0-1.8-1.5-3.3-3.3-3.3c-1.8,0-3.3,1.5-3.3,3.3c0,1.8,1.5,3.3,3.3,3.3C114.6,555,116.1,553.5,116.1,551.7z"/>
						<path class="st0" d="M114.5,562.8c1.9,0,3.5,1.6,3.5,3.5c0,1.9-1.6,3.5-3.5,3.5H77.1c-1.9,0-3.5-1.6-3.5-3.5
							c0-1.9,1.6-3.5,3.5-3.5H114.5z M116.1,566.3c0-0.9-0.7-1.6-1.6-1.6H77.1c-0.9,0-1.6,0.7-1.6,1.6c0,0.9,0.7,1.6,1.6,1.6h37.4
							C115.4,567.9,116.1,567.2,116.1,566.3z"/>
						<path class="st0" d="M86.7,362.5c13.7,0,24.9,11.2,24.9,24.9c0,13.7-11.2,24.9-24.9,24.9c-13.7,0-24.9-11.2-24.9-24.9
							C61.8,373.6,73,362.5,86.7,362.5z M109.8,387.4c0-12.7-10.3-23.1-23.1-23.1c-12.7,0-23,10.3-23,23.1c0,12.7,10.3,23,23,23
							C99.4,410.4,109.8,400.1,109.8,387.4z"/>
						<path class="st1" d="M86.7,364.3c12.7,0,23.1,10.3,23.1,23.1c0,12.7-10.3,23-23.1,23c-12.7,0-23-10.3-23-23
							C63.7,374.7,74,364.3,86.7,364.3z M106.2,387.4c0-10.8-8.7-19.5-19.5-19.5c-10.7,0-19.5,8.7-19.5,19.5s8.7,19.5,19.5,19.5
							C97.4,406.9,106.2,398.1,106.2,387.4z"/>
						<path class="st0" d="M86.7,367.9c10.8,0,19.5,8.7,19.5,19.5s-8.7,19.5-19.5,19.5c-10.7,0-19.5-8.7-19.5-19.5
							S76,367.9,86.7,367.9z M104.3,387.4c0-9.7-7.9-17.6-17.6-17.6s-17.6,7.9-17.6,17.6c0,9.7,7.9,17.6,17.6,17.6
							S104.3,397.1,104.3,387.4z"/>
						<path class="st0" d="M101,551.7c0,2.9-2.3,5.2-5.2,5.2s-5.2-2.3-5.2-5.2c0-2.9,2.3-5.2,5.2-5.2S101,548.8,101,551.7z
							 M99.1,551.7c0-1.8-1.5-3.3-3.3-3.3c-1.8,0-3.3,1.5-3.3,3.3c0,1.8,1.5,3.3,3.3,3.3C97.6,555,99.1,553.5,99.1,551.7z"/>
						<path class="st0" d="M86.7,381.2c3.4,0,6.2,2.8,6.2,6.2c0,3.4-2.8,6.1-6.2,6.1s-6.1-2.8-6.1-6.1
							C80.6,384,83.3,381.2,86.7,381.2z M91,387.4c0-2.4-1.9-4.3-4.3-4.3c-2.4,0-4.3,1.9-4.3,4.3c0,2.4,1.9,4.3,4.3,4.3
							C89.1,391.7,91,389.8,91,387.4z"/>
						<path class="st0" d="M84,551.7c0,2.9-2.3,5.2-5.2,5.2c-2.9,0-5.2-2.3-5.2-5.2c0-2.9,2.3-5.2,5.2-5.2
							C81.7,546.5,84,548.8,84,551.7z M82.1,551.7c0-1.8-1.5-3.3-3.3-3.3c-1.8,0-3.3,1.5-3.3,3.3c0,1.8,1.5,3.3,3.3,3.3
							C80.7,555,82.1,553.5,82.1,551.7z"/>
						<path class="st1" d="M78.8,548.3c1.8,0,3.3,1.5,3.3,3.3c0,1.8-1.5,3.3-3.3,3.3c-1.8,0-3.3-1.5-3.3-3.3
							C75.5,549.8,77,548.3,78.8,548.3z"/>
						<path class="st0" d="M74.4,578.7v0.4c0,1.7-1.4,3.1-3.1,3.1s-3.1-1.4-3.1-3.1v-0.4c0-1.7,1.4-3.1,3.1-3.1S74.4,577,74.4,578.7
							z M72.6,579v-0.4c0-0.7-0.5-1.2-1.2-1.2c-0.7,0-1.2,0.5-1.2,1.2v0.4c0,0.7,0.5,1.2,1.2,1.2C72.1,580.2,72.6,579.7,72.6,579z"
							/>
						<path class="st0" d="M67,551.7c0,2.9-2.3,5.2-5.2,5.2c-2.9,0-5.2-2.3-5.2-5.2c0-2.9,2.3-5.2,5.2-5.2
							C64.7,546.5,67,548.8,67,551.7z M65.2,551.7c0-1.8-1.5-3.3-3.3-3.3c-1.8,0-3.3,1.5-3.3,3.3c0,1.8,1.5,3.3,3.3,3.3
							C63.7,555,65.2,553.5,65.2,551.7z"/>
						<path class="st0" d="M63.9,578.7v0.4c0,1.7-1.4,3.1-3.1,3.1c-1.7,0-3.1-1.4-3.1-3.1v-0.4c0-1.7,1.4-3.1,3.1-3.1
							C62.5,575.6,63.9,577,63.9,578.7z M62,579v-0.4c0-0.7-0.5-1.2-1.2-1.2s-1.2,0.5-1.2,1.2v0.4c0,0.7,0.5,1.2,1.2,1.2
							S62,579.7,62,579z"/>
					</g>
				</g>
			</g>
		</g>
		<g>
			<g>
				<g id="XMLID_1_">
					<g>
						<path class="st1" d="M789.1-1.5h-3c0.6,3.3,1,6.7,1,10.2c0,30-24.4,54.4-54.4,54.4c-9.9,0-19.6-2.7-28-7.8l-2-1.2l-0.3,2.3
							c-2.5,19.8-19.5,34.8-39.5,34.8c-12,0-23.3-5.4-30.9-14.7l-1.1-1.4l-1.2,1.3c-10.5,12.1-25.8,19.3-41.8,19.7l-1.5,0l0,1.8
							c0,14-11.4,25.3-25.3,25.3c-0.6,0-1.3,0-2.1-0.1l-1.5-0.1l-0.1,1.5c-1.2,12.8-7.9,24.6-18.2,32.3l-0.9,0.7l0.4,1.1
							c1,2.5,1.4,5.1,1.4,7.7c0,9.1-5.8,17.3-14.3,20.4l-1,0.4l0.1,1.1c0,0.4,0,0.9,0,1.3c0,14.4-11.7,26.1-26.1,26.1
							c-14.4,0-26.1-11.7-26.1-26.1c0-1.5,0.1-3,0.4-4.5l0.4-2l-2,0.2c-0.7,0.1-1.3,0.1-1.9,0.1c-7.4,0-13.9-5-15.6-12.2l-0.5-2
							l-1.8,1.1c-4.7,3-10.1,4.6-15.6,4.6c-12.2,0-23.1-7.7-27.3-19.1l-0.7-1.8l-1.6,1.1c-6.2,4.4-13.5,6.7-21.1,6.7
							c-16.5,0-31.1-11.1-35.5-27l-0.5-1.8l-1.7,0.9c-2.8,1.5-6,2.3-9.2,2.3c-10.6,0-19.1-8.6-19.1-19.1l0-1.8l-1.3-0.2
							c-24.1-3.3-42.2-24.2-42.2-48.6c0-1.5,0.1-3,0.2-4.6l0.1-1.2l-1.2-0.4c-16-4.8-28-18-31.3-34.3l-0.4-1.9l-1.7,0.8
							c-7.1,3.3-14.6,4.9-22.4,4.9c-14.6,0-28.2-5.8-38.4-16.2l-1.1-1.2l-1.1,1.2c-6.8,7.9-16.8,12.5-27.2,12.5
							c-12.7,0-24.6-6.8-31-17.8l-1.5-2.6l-1.2,2.8C109.2,28,90.1,40.6,68.9,40.6c-0.4,0-0.8,0-1.2,0L65,40.5l0.8,2.1
							c1.2,3.2,1.8,6.5,1.8,9.9c0,15.7-12.8,28.5-28.5,28.5c-14.6,0-26.7-10.9-28.3-25.4l-0.2-1.7L9,54.2c-2.8,0.6-5.6,0.9-8.5,0.9
							c-1.4,0-2.8-0.1-4.1-0.2v3c1.4,0.1,2.7,0.2,4.1,0.2c2.5,0,5-0.2,7.5-0.7c2.4,15.2,15.5,26.5,31,26.5
							c17.4,0,31.5-14.1,31.5-31.5c0-3-0.4-6-1.3-8.9c21.3-0.2,40.5-12.4,49.8-31.4c7.2,10.5,19.3,16.9,32.1,16.9
							c10.8,0,21-4.5,28.4-12.3c10.6,10.3,24.6,16,39.4,16c7.6,0,15-1.5,21.9-4.4c3.9,16.2,15.8,29.3,31.8,34.5
							c-0.1,1.3-0.1,2.5-0.1,3.6c0,25.4,18.6,47.2,43.5,51.3c0.4,11.8,10.2,21.3,22.1,21.3c3.1,0,6.2-0.6,9-1.9
							c5.3,16.3,20.6,27.5,37.9,27.5c7.6,0,14.9-2.1,21.3-6.2c5,11.6,16.6,19.3,29.4,19.3c5.5,0,10.8-1.4,15.6-4.1
							c2.7,7.5,9.8,12.6,18,12.6h0.4c-0.1,1.1-0.2,2.1-0.2,3.1c0,16,13,29.1,29.1,29.1c16,0,29.1-13.1,29.1-29.1v-0.4
							c9.2-3.8,15.3-12.8,15.3-22.8c0-2.6-0.4-5.2-1.2-7.7c10.2-7.9,16.8-19.5,18.4-32.3c0.3,0,0.6,0,0.9,0
							c15.3,0,27.7-12.1,28.3-27.2c15.8-0.8,30.7-7.7,41.4-19.4c8.1,9.2,19.7,14.5,32.1,14.5c20.8,0,38.5-15,42.1-35.2
							c8.4,4.6,17.9,7.1,27.6,7.1c31.7,0,57.4-25.8,57.4-57.4C790,5.2,789.7,1.8,789.1-1.5z"/>
						<path class="st2" d="M786-1.5H-3.5v56.4c1.4,0.1,2.7,0.2,4.1,0.2c2.8,0,5.7-0.3,8.5-0.9l1.6-0.3l0.2,1.7
							C12.4,70,24.5,80.9,39.1,80.9c15.7,0,28.5-12.8,28.5-28.5c0-3.4-0.6-6.7-1.8-9.9L65,40.5l2.6,0.1c0.4,0,0.8,0,1.2,0
							c21.2,0,40.3-12.6,48.6-32.1l1.2-2.8l1.5,2.6c6.4,11,18.3,17.8,31,17.8c10.4,0,20.3-4.5,27.2-12.5l1.1-1.2l1.1,1.2
							C190.7,24,204.4,29.8,219,29.8c7.8,0,15.3-1.7,22.4-4.9l1.7-0.8l0.4,1.9c3.2,16.4,15.2,29.6,31.3,34.3l1.2,0.4l-0.1,1.2
							c-0.1,1.6-0.2,3.1-0.2,4.6c0,24.3,18.2,45.2,42.2,48.6l1.3,0.2l0,1.8c0,10.5,8.6,19.1,19.1,19.1c3.2,0,6.4-0.8,9.2-2.3
							l1.7-0.9l0.5,1.8c4.4,15.9,19,27,35.5,27c7.6,0,14.9-2.3,21.1-6.7l1.6-1.1l0.7,1.8c4.2,11.4,15.1,19.1,27.3,19.1
							c5.6,0,11-1.6,15.6-4.6l1.8-1.1l0.5,2c1.8,7.2,8.2,12.2,15.6,12.2c0.6,0,1.2,0,1.9-0.1l2-0.2l-0.4,2c-0.3,1.5-0.4,3-0.4,4.5
							c0,14.4,11.7,26.1,26.1,26.1c14.4,0,26.1-11.7,26.1-26.1c0-0.4,0-0.9,0-1.3l-0.1-1.1l1-0.4c8.6-3.1,14.3-11.3,14.3-20.4
							c0-2.7-0.5-5.3-1.4-7.7l-0.4-1.1l0.9-0.7c10.4-7.7,17-19.5,18.2-32.3l0.1-1.5l1.5,0.1c0.8,0.1,1.5,0.1,2.1,0.1
							c14,0,25.3-11.4,25.3-25.3l0-1.8l1.5,0c16-0.4,31.3-7.5,41.8-19.7l1.2-1.3l1.1,1.4c7.6,9.3,18.9,14.7,30.9,14.7
							c20,0,37-15,39.5-34.8l0.3-2.3l2,1.2c8.4,5.1,18.1,7.8,28,7.8c30,0,54.4-24.4,54.4-54.4C787,5.2,786.7,1.8,786-1.5z"/>
						<path class="st1" d="M101.8,104.3c10.6,0,19.2,8.6,19.2,19.2c0,10.6-8.6,19.1-19.2,19.1s-19.2-8.6-19.2-19.1
							C82.7,112.9,91.3,104.3,101.8,104.3z M118,123.5c0-8.9-7.2-16.2-16.2-16.2s-16.2,7.2-16.2,16.2s7.2,16.1,16.2,16.1
							S118,132.4,118,123.5z"/>
						<path class="st2" d="M101.8,107.3c8.9,0,16.2,7.2,16.2,16.2s-7.2,16.1-16.2,16.1s-16.2-7.2-16.2-16.1S92.9,107.3,101.8,107.3z
							"/>
						<path class="st1" d="M91,159.9c3.3,0,6,2.7,6,6c0,3.3-2.7,6-6,6s-6-2.7-6-6C85,162.6,87.7,159.9,91,159.9z M94,165.9
							c0-1.7-1.4-3-3-3c-1.7,0-3,1.4-3,3c0,1.7,1.4,3,3,3C92.7,168.9,94,167.6,94,165.9z"/>
						<circle class="st2" cx="91" cy="165.9" r="3"/>
					</g>
				</g>
			</g>
		</g>
		<g>
			<g>
				<path class="st2" d="M492.7,202.8c5.8,7.9,26,4,24.2-11.7"/>
				<path class="st3" d="M502,208.8c-4.5,0-8.7-1.7-11-4.8c-0.7-0.9-0.5-2.1,0.4-2.8c0.9-0.7,2.1-0.5,2.8,0.4
					c2.3,3.2,8.1,4.1,13.2,2.1c2.6-1,8.4-4.2,7.5-12.4c-0.1-1.1,0.7-2.1,1.8-2.2c1.1-0.1,2.1,0.7,2.2,1.8c0.9,7.6-2.8,13.8-10,16.6
					C506.7,208.4,504.3,208.8,502,208.8z"/>
			</g>
			<g>
				<path class="st2" d="M36.2,73c11.6,4.5,30.7-13.5,18-29.2"/>
				<path class="st3" d="M40.1,75.7c-1.6,0-3.2-0.3-4.6-0.8c-1-0.4-1.5-1.6-1.1-2.6c0.4-1,1.6-1.5,2.6-1.1c4.9,1.9,12-1.1,16.2-6.9
					c2.1-2.9,6.4-10.6-0.5-19.1c-0.7-0.9-0.6-2.1,0.3-2.8c0.9-0.7,2.1-0.6,2.8,0.3c6,7.4,6.2,16.3,0.7,24
					C52.2,72.3,45.8,75.7,40.1,75.7z"/>
			</g>
			<g>
				<path class="st2" d="M99.4,134.7c7.4,2.9,19.5-8.6,11.4-18.5"/>
				<path class="st3" d="M101.9,137.1c-1.1,0-2.2-0.2-3.2-0.6c-1-0.4-1.5-1.6-1.1-2.6c0.4-1,1.6-1.5,2.6-1.1
					c2.8,1.1,6.9-0.7,9.4-4.1c1.3-1.7,3.7-6.3-0.3-11.2c-0.7-0.9-0.6-2.1,0.3-2.8c0.9-0.7,2.1-0.6,2.8,0.3c4,4.9,4.2,11,0.4,16.1
					C110,134.8,105.8,137.1,101.9,137.1z"/>
			</g>
			<g>
				<path class="st2" d="M326.1,112.8c-1.7,9.6,15.1,21.6,25.2,9.4"/>
				<path class="st3" d="M341,129.3c-2.3,0-4.7-0.5-7-1.6c-6.6-3.1-10.8-9.6-9.8-15.3c0.2-1.1,1.2-1.8,2.3-1.6
					c1.1,0.2,1.8,1.2,1.6,2.3c-0.7,3.9,2.6,8.7,7.6,11c2.5,1.2,8.9,3.2,14.1-3.2c0.7-0.9,2-1,2.8-0.3c0.9,0.7,1,2,0.3,2.8
					C349.6,127.3,345.5,129.3,341,129.3z"/>
			</g>
			<g>
				<path class="st2" d="M183.4-1.5c2.8,20.4,43.3,34.7,64.4,11.7L204.1-1.5H183.4z"/>
				<path class="st3" d="M246.4,8.9c-13,14.1-33.2,13.1-46.5,6.3c-8.3-4.2-13.4-10.3-14.4-16.7h-4c1,7.9,6.9,15.3,16.7,20.3
					c6.3,3.2,14,5.2,21.8,5.2c10.4,0,21.2-3.5,29.4-12.4c0.7-0.8,0.7-2.1-0.1-2.8C248.4,8,247.1,8,246.4,8.9z"/>
			</g>
			<g>
				<path class="st2" d="M589.5,86.9c11.4,3.8,36.3-8.2,33.3-29.2"/>
				<path class="st3" d="M594.3,89.6c-2,0-3.8-0.3-5.5-0.8c-1-0.4-1.6-1.5-1.3-2.5c0.4-1,1.5-1.6,2.5-1.3c5.8,2,15.3-0.8,22.1-6.4
					c3.8-3.2,10.1-10.1,8.6-20.6c-0.2-1.1,0.6-2.1,1.7-2.3c1.1-0.1,2.1,0.6,2.3,1.7c1.3,9.2-2.3,17.8-10,24.2
					C608.7,86.7,600.9,89.6,594.3,89.6z"/>
			</g>
			<g>
				<path class="st2" d="M706.6,39.1C733.5,70,781.9,38,773.9,7.2"/>
				<path class="st3" d="M733.2,53.7c-9.6,0-19.7-3.6-28.1-13.3c-0.7-0.8-0.6-2.1,0.2-2.8c0.8-0.7,2.1-0.6,2.8,0.2
					c13.2,15.2,31.1,13.7,43.5,7.2C764.8,38,776,23,772,7.7c-0.3-1.1,0.4-2.2,1.4-2.4c1.1-0.3,2.2,0.4,2.4,1.4
					c4.1,15.5-5.1,32.7-22.3,41.8C747.6,51.6,740.5,53.7,733.2,53.7z"/>
			</g>
		</g>
	</g>
</g>
</svg>
